<?xml version="1.0" standalone="no"?>
<!DOCTYPE svg PUBLIC "-//W3C//DTD SVG 20010904//EN"
 "http://www.w3.org/TR/2001/REC-SVG-20010904/DTD/svg10.dtd">
<svg version="1.0" xmlns="http://www.w3.org/2000/svg"
 width="6000.000000pt" height="4000.000000pt" viewBox="0 0 6000.000000 4000.000000"
 preserveAspectRatio="xMidYMid meet">

<g transform="translate(0.000000,4000.000000) scale(0.100000,-0.100000)"
fill="#000000" stroke="none">
<path d="M0 30490 l0 -9510 23 -5 c12 -2 110 -19 217 -36 107 -16 231 -37 275
-44 44 -8 174 -30 290 -50 217 -37 704 -124 950 -170 599 -110 2046 -403 3190
-644 105 -22 265 -56 357 -75 92 -20 228 -49 302 -66 75 -16 139 -30 143 -31
24 -3 -50 -17 -94 -18 -32 -1 -53 -5 -53 -12 0 -8 14 -10 40 -6 50 6 54 -13 8
-33 -18 -7 -36 -15 -41 -18 -4 -2 -7 6 -7 17 0 25 -8 26 -38 5 -32 -22 -27
-34 14 -34 29 0 35 -3 30 -16 -3 -9 -6 -27 -6 -40 0 -22 -4 -24 -46 -24 l-47
0 5 45 c3 25 2 45 -2 45 -9 0 -70 -95 -70 -109 0 -6 5 -11 11 -11 8 0 8 -5 -1
-15 -14 -17 -86 -21 -92 -4 -4 12 -38 1 -38 -13 0 -5 9 -12 20 -15 32 -8 23
-21 -20 -28 -34 -6 -40 -10 -40 -32 0 -25 -1 -26 -57 -21 -32 3 -50 3 -40 1
12 -3 17 -15 17 -44 0 -35 -3 -39 -24 -39 -13 0 -31 -3 -39 -6 -12 -4 -17 3
-19 28 l-4 33 -13 -27 c-10 -19 -22 -28 -38 -28 -29 0 -30 -16 -2 -23 23 -6
17 -27 -8 -27 -10 0 -14 -6 -11 -17 4 -16 -1 -18 -39 -14 -27 2 -43 -1 -43 -8
0 -7 -20 -11 -50 -11 -42 0 -50 -3 -50 -18 0 -10 -11 -28 -25 -40 -30 -26 -39
-28 -31 -6 4 12 -1 10 -23 -5 -16 -12 -36 -21 -45 -21 -9 0 -16 -7 -16 -15 0
-9 -9 -15 -22 -15 -41 -1 -62 -26 -61 -71 2 -35 -1 -41 -25 -51 -24 -9 -25
-11 -8 -17 19 -7 19 -8 1 -15 -10 -4 -21 -2 -25 4 -5 8 -12 7 -22 -4 -9 -8
-18 -12 -21 -9 -4 3 -22 -4 -42 -16 -20 -11 -43 -21 -51 -21 -8 0 -18 -8 -21
-17 -10 -26 -29 -43 -47 -43 -9 0 -16 -4 -16 -10 0 -5 -9 -10 -20 -10 -13 0
-20 7 -20 20 0 13 -7 20 -20 20 -11 0 -20 -4 -20 -10 0 -5 7 -10 15 -10 8 0
15 -9 15 -20 0 -16 -7 -20 -35 -20 -19 0 -35 -4 -35 -10 0 -5 -9 -10 -20 -10
-11 0 -20 3 -20 6 0 11 29 34 44 34 9 0 16 5 16 10 0 12 -34 13 -58 1 -9 -5
-30 -15 -47 -22 -31 -14 -55 -33 -55 -43 0 -3 14 -6 30 -6 17 0 30 -4 30 -10
0 -5 -18 -10 -40 -10 -25 0 -40 5 -40 12 0 7 -7 3 -15 -9 -9 -13 -31 -23 -62
-28 -42 -7 -45 -9 -23 -15 24 -8 24 -8 -8 -15 -25 -6 -33 -13 -31 -29 3 -38
-1 -56 -11 -56 -5 0 -10 23 -10 51 0 35 -4 49 -12 47 -8 -3 -11 -23 -9 -58 l3
-53 -45 6 c-57 8 -95 25 -100 46 -3 9 -5 4 -6 -11 -1 -19 4 -28 14 -28 8 0 15
-4 15 -10 0 -5 -4 -10 -10 -10 -5 0 -10 -6 -10 -14 0 -8 -11 -17 -24 -20 -14
-3 -28 -15 -31 -26 -5 -16 -15 -20 -56 -20 -37 0 -49 -4 -49 -15 0 -8 -6 -15
-12 -16 -7 -1 -41 -3 -76 -5 -74 -5 -92 -18 -92 -71 l0 -38 -67 -13 c-40 -8
-69 -9 -72 -3 -3 5 -33 -4 -66 -20 -33 -16 -68 -27 -77 -25 -18 4 -22 -4 -19
-35 1 -12 -14 -19 -59 -29 -33 -7 -63 -17 -66 -21 -7 -12 -34 -11 -34 1 0 6 6
10 14 10 16 0 41 28 33 37 -4 3 -34 0 -66 -7 -43 -9 -62 -18 -66 -31 -4 -11
-13 -19 -21 -19 -8 0 -14 -4 -14 -10 0 -5 -15 -10 -34 -10 -19 0 -38 -4 -41
-10 -3 -5 -19 -10 -35 -10 -38 0 -60 -9 -60 -26 0 -8 -6 -14 -14 -14 -7 0 -16
-9 -19 -20 -3 -11 -14 -20 -24 -20 -11 0 -28 -7 -39 -15 -10 -8 -38 -15 -61
-15 -35 0 -41 -3 -36 -17 5 -13 1 -15 -23 -10 -16 3 -36 8 -45 12 -21 8 -35
-40 -18 -61 9 -11 8 -14 -5 -14 -9 0 -16 7 -16 15 0 8 -4 15 -9 15 -11 0 -21
-36 -21 -77 0 -18 -4 -33 -10 -33 -5 0 -10 6 -10 14 0 21 -20 30 -33 17 -6 -6
-23 -11 -39 -11 -17 0 -31 -7 -38 -20 -6 -11 -20 -20 -30 -20 -11 0 -20 -4
-20 -10 0 -5 -10 -10 -23 -10 -12 0 -28 -9 -35 -20 -10 -17 -23 -20 -77 -20
-51 0 -65 -3 -65 -15 0 -17 -61 -46 -105 -49 -170 -15 -212 -20 -222 -28 -6
-5 -22 -6 -36 -3 -35 9 -67 -2 -60 -21 3 -7 0 -14 -6 -14 -6 0 -11 7 -11 16 0
8 -5 12 -10 9 -6 -3 -10 -14 -10 -24 0 -16 -19 -19 -182 -30 -202 -13 -241
-18 -232 -33 8 -13 -15 -28 -43 -28 -13 0 -23 -4 -23 -10 0 -5 -6 -10 -14 -10
-8 0 -16 -6 -19 -13 -4 -10 -21 -12 -64 -9 -56 4 -59 3 -71 -23 -9 -20 -17
-25 -32 -20 -11 4 -20 2 -20 -4 0 -6 -7 -11 -16 -11 -8 0 -23 -7 -32 -16 -11
-12 -28 -15 -64 -12 -26 3 -48 2 -48 -3 0 -4 -9 -5 -20 -2 -22 6 -26 -7 -8
-25 9 -9 -13 -13 -103 -14 -62 -2 -149 -1 -191 0 -43 2 -86 -2 -95 -7 -17 -10
-17 -10 0 -11 11 0 17 -8 17 -23 0 -26 -48 -52 -80 -42 -11 3 -51 3 -90 -1
l-70 -7 0 -3333 0 -3333 51 15 c32 10 79 14 124 12 40 -2 71 0 68 5 -2 4 15 7
39 6 28 0 37 -3 25 -8 -10 -4 -18 -11 -17 -16 0 -6 -11 -11 -25 -13 -14 -2
-25 -9 -25 -16 0 -19 46 -40 67 -31 26 11 123 13 129 3 3 -4 -3 -8 -14 -8 -12
0 -26 -14 -38 -37 -10 -21 -28 -45 -39 -55 -21 -18 -20 -19 35 -24 82 -7 118
-12 128 -18 6 -4 15 2 21 11 9 16 11 16 20 -7 10 -25 10 -25 10 -2 1 20 4 21
21 12 12 -6 31 -8 43 -4 60 20 105 3 74 -27 -7 -8 -12 -20 -9 -27 2 -6 -2 -12
-10 -13 -7 -1 -2 -4 12 -8 14 -4 31 -3 37 2 15 11 17 37 3 37 -5 0 -10 7 -10
15 0 29 47 5 61 -32 9 -25 10 -25 23 -7 11 14 11 21 3 26 -7 4 3 8 21 8 22 0
32 5 32 16 0 21 24 12 28 -10 3 -11 -4 -19 -18 -23 -11 -3 -27 -18 -35 -34 -8
-15 -24 -30 -35 -34 -11 -3 -20 -11 -20 -17 0 -15 -60 -68 -76 -68 -8 0 -14
-5 -14 -11 0 -13 -78 -89 -91 -89 -5 0 -9 -7 -9 -15 0 -8 -7 -15 -15 -15 -8 0
-15 -5 -15 -11 0 -11 -57 -69 -69 -69 -3 0 -11 -10 -16 -22 -6 -12 -21 -25
-35 -28 -18 -4 -26 -13 -28 -33 -2 -19 -9 -27 -23 -27 -10 0 -19 -6 -19 -14 0
-8 -14 -23 -30 -33 -17 -9 -30 -21 -30 -25 0 -4 -6 -8 -14 -8 -8 0 -17 -11
-20 -25 -4 -16 -11 -22 -21 -19 -10 4 -15 0 -15 -15 0 -12 -6 -21 -15 -21 -8
0 -19 -9 -25 -21 -7 -12 -18 -18 -26 -15 -8 3 -14 -1 -14 -9 0 -10 -10 -15
-27 -15 -16 0 -35 -4 -42 -9 -9 -6 -22 -6 -33 0 -12 6 -25 6 -38 -1 -20 -11
-20 -21 -20 -4930 l0 -4920 30000 0 30000 0 0 20000 0 20000 -30000 0 -30000
0 0 -9510z m5913 -10677 c-7 -2 -19 -2 -25 0 -7 3 -2 5 12 5 14 0 19 -2 13 -5z
m-938 -493 c3 -5 1 -10 -4 -10 -6 0 -11 5 -11 10 0 6 2 10 4 10 3 0 8 -4 11
-10z m-1441 -759 c17 -7 17 -8 2 -23 -9 -9 -16 -21 -16 -27 0 -6 -9 -11 -20
-11 -11 0 -20 -4 -20 -10 0 -5 -9 -10 -20 -10 -17 0 -20 7 -20 39 0 36 3 40
28 44 42 6 46 6 66 -2z m-334 -171 c0 -5 -9 -10 -20 -10 -11 0 -20 5 -20 10 0
6 9 10 20 10 11 0 20 -4 20 -10z m-560 -210 c0 -11 -48 -25 -57 -16 -4 3 1 6
10 6 10 0 17 5 17 10 0 6 7 10 15 10 8 0 15 -4 15 -10z m-130 -105 c0 -11 -29
-11 -33 -1 -4 10 1 12 14 9 10 -3 19 -7 19 -8z m77 -1 c-3 -3 -12 -4 -19 -1
-8 3 -5 6 6 6 11 1 17 -2 13 -5z m-187 -104 c0 -5 -7 -10 -16 -10 -8 0 -12 5
-9 10 3 6 10 10 16 10 5 0 9 -4 9 -10z m-160 -20 c0 -5 -7 -7 -15 -4 -8 4 -15
8 -15 10 0 2 7 4 15 4 8 0 15 -4 15 -10z m-1680 -460 c0 -5 -8 -10 -17 -10
-15 0 -16 2 -3 10 19 12 20 12 20 0z"/>
<path d="M5640 19861 c8 -6 28 -11 44 -11 39 0 31 6 -19 14 -29 5 -36 4 -25
-3z"/>
<path d="M5181 19590 c-13 -11 -32 -20 -42 -20 -10 0 -19 -4 -19 -10 0 -13 6
-13 47 2 18 7 33 17 33 24 0 7 6 15 13 17 6 3 8 6 2 6 -5 0 -21 -9 -34 -19z"/>
<path d="M4933 19393 c-21 -8 -15 -33 7 -33 13 0 20 7 20 20 0 20 -5 23 -27
13z"/>
<path d="M4035 18890 c-3 -5 1 -10 9 -10 9 0 16 5 16 10 0 6 -4 10 -9 10 -6 0
-13 -4 -16 -10z"/>
<path d="M3825 18792 c-16 -12 -16 -32 0 -32 8 0 15 9 15 20 0 22 -1 23 -15
12z"/>
<path d="M3699 18753 c-1 -5 -1 -12 0 -17 2 -11 -39 -41 -57 -41 -7 0 -18 -11
-25 -25 -10 -20 -21 -26 -55 -28 -53 -4 -55 -22 -2 -22 22 0 40 5 40 10 0 6
18 10 40 10 39 0 40 1 40 35 0 22 5 35 13 35 7 0 20 9 29 19 14 17 15 20 1 25
-19 8 -23 8 -24 -1z"/>
<path d="M3840 18730 c0 -5 5 -10 10 -10 6 0 10 5 10 10 0 6 -4 10 -10 10 -5
0 -10 -4 -10 -10z"/>
<path d="M3360 18550 c0 -5 -18 -10 -40 -10 -33 0 -40 -3 -40 -20 0 -13 -7
-20 -19 -20 -11 0 -23 -4 -26 -10 -4 -6 22 -10 69 -10 l76 0 0 40 c0 22 -4 40
-10 40 -5 0 -10 -4 -10 -10z m0 -40 c0 -5 -13 -10 -30 -10 -16 0 -30 5 -30 10
0 6 14 10 30 10 17 0 30 -4 30 -10z"/>
<path d="M400 10469 c0 -5 5 -7 10 -4 6 3 10 8 10 11 0 2 -4 4 -10 4 -5 0 -10
-5 -10 -11z"/>
<path d="M640 10390 c0 -5 4 -10 9 -10 6 0 13 5 16 10 3 6 -1 10 -9 10 -9 0
-16 -4 -16 -10z"/>
</g>
</svg>
