<svg xmlns="http://www.w3.org/2000/svg" xmlns:xlink="http://www.w3.org/1999/xlink" viewBox="0,0,256,256" width="100px" height="100px"><g transform="translate(-40.96,-40.96) scale(1.32,1.32)"><g fill="none" fill-rule="nonzero" stroke="none" stroke-width="1" stroke-linecap="butt" stroke-linejoin="miter" stroke-miterlimit="10" stroke-dasharray="" stroke-dashoffset="0" font-family="none" font-weight="none" font-size="none" text-anchor="none" style="mix-blend-mode: normal"><g transform="scale(5.33333,5.33333)"><path d="M13.083,42h21.834c3.912,0 7.083,-3.171 7.083,-7.083v-21.834c0,-3.912 -3.171,-7.083 -7.083,-7.083h-21.834c-3.912,0 -7.083,3.171 -7.083,7.083v21.834c0,3.912 3.171,7.083 7.083,7.083z" fill="#fb8c00"></path><path d="M23,34c-2.347,-4.355 -8,-5 -12,-1v-16c4,-4 9,-3 12,0z" fill="#ffffff"></path><path d="M25,34c2.347,-4.355 8,-5 12,-1v-16c-4,-4 -9,-3 -12,0z" fill="#ffffff"></path></g></g></g></svg>