<?xml version="1.0" encoding="utf-8"?>
<!-- Generator: Adobe Illustrator 25.0.1, SVG Export Plug-In . SVG Version: 6.00 Build 0)  -->
<svg version="1.0"
	 id="svg2" inkscape:version="0.48.4 r9939" sodipodi:docname="Contacts.svg" xmlns:cc="http://creativecommons.org/ns#" xmlns:dc="http://purl.org/dc/elements/1.1/" xmlns:inkscape="http://www.inkscape.org/namespaces/inkscape" xmlns:rdf="http://www.w3.org/1999/02/22-rdf-syntax-ns#" xmlns:sodipodi="http://sodipodi.sourceforge.net/DTD/sodipodi-0.dtd" xmlns:svg="http://www.w3.org/2000/svg"
	 xmlns="http://www.w3.org/2000/svg" xmlns:xlink="http://www.w3.org/1999/xlink" x="0px" y="0px" viewBox="0 0 1044 717.3"
	 style="enable-background:new 0 0 1044 717.3;" xml:space="preserve">
<style type="text/css">
	.st0{fill:#E0E2E2;}
	.st1{fill:#9A9A9A;}
	.st2{fill:#C9C8C4;}
	.st3{fill:#676362;}
	.st4{fill:#4FC9F8;}
	.st5{fill:#1C627A;}
	.st6{fill:#47D86F;}
	.st7{fill:#10782D;}
	.st8{fill:#FF9327;}
	.st9{fill:#884308;}
</style>
<defs>
	<inkscape:path-effect  effect="spiro" id="path-effect3118" is_visible="true"></inkscape:path-effect>
	<inkscape:path-effect  effect="spiro" id="path-effect3114" is_visible="true"></inkscape:path-effect>
	<inkscape:path-effect  effect="spiro" id="path-effect3052" is_visible="true"></inkscape:path-effect>
	<inkscape:path-effect  effect="spiro" id="path-effect3056" is_visible="true"></inkscape:path-effect>
	<inkscape:path-effect  effect="spiro" id="path-effect3060" is_visible="true"></inkscape:path-effect>
	<inkscape:path-effect  effect="spiro" id="path-effect3064" is_visible="true"></inkscape:path-effect>
	<inkscape:path-effect  effect="spiro" id="path-effect3083" is_visible="true"></inkscape:path-effect>
	<inkscape:path-effect  effect="spiro" id="path-effect3087" is_visible="true"></inkscape:path-effect>
	<inkscape:path-effect  effect="spiro" id="path-effect3100" is_visible="true"></inkscape:path-effect>
	<inkscape:path-effect  effect="spiro" id="path-effect3071" is_visible="true"></inkscape:path-effect>
	<inkscape:path-effect  effect="spiro" id="path-effect3111" is_visible="true"></inkscape:path-effect>
	<inkscape:path-effect  effect="spiro" id="path-effect3115" is_visible="true"></inkscape:path-effect>
	<inkscape:path-effect  effect="spiro" id="path-effect3119" is_visible="true"></inkscape:path-effect>
</defs>
<sodipodi:namedview  bordercolor="#666666" borderopacity="1" gridtolerance="10" guidetolerance="10" id="namedview4" inkscape:current-layer="svg2" inkscape:cx="715.66904" inkscape:cy="17.109152" inkscape:pageopacity="0" inkscape:pageshadow="2" inkscape:window-height="706" inkscape:window-maximized="1" inkscape:window-width="1366" inkscape:window-x="-8" inkscape:window-y="-8" inkscape:zoom="0.35355339" objecttolerance="10" pagecolor="#ffffff" showgrid="false">
	</sodipodi:namedview>
<g id="g3093" transform="translate(0,-1.6305e-5)">
	<path id="rect2996" inkscape:connector-curvature="0" class="st0" d="M359.7,58.7h324.6c76.3,0,137.7,61.4,137.7,137.7V521
		c0,76.3-61.4,137.7-137.7,137.7H359.7C283.4,658.7,222,597.3,222,521V196.4C222,120.1,283.4,58.7,359.7,58.7z"/>
	<path id="path3169" inkscape:connector-curvature="0" class="st0" d="M361.1,61.3h321.7c75.6,0,136.5,60.9,136.5,136.5v321.7
		c0,75.6-60.9,136.5-136.5,136.5H361.1c-75.6,0-136.5-60.9-136.5-136.5V197.8C224.7,122.2,285.5,61.3,361.1,61.3z"/>
</g>
<g id="g3056" transform="matrix(6.6666667,0,0,6.6666667,-6152.695,-3747.4354)">
</g>
<g id="g3952" transform="matrix(6.6666667,0,0,6.6666667,-5980.0279,-2389.1102)">
</g>
<g id="g3958" transform="matrix(6.6666667,0,0,6.6666667,-5953.3612,-2389.1102)">
</g>
<g id="g3982" transform="matrix(6.6666667,0,0,6.6666667,-5846.6946,-2389.1102)">
</g>
<path id="path3140" inkscape:connector-curvature="0" sodipodi:nodetypes="cssssssccsssssssssssssssssssssccssscscssscsscssssccscc" class="st1" d="
	M375.4,656.5c-31.5-0.9-45.6-2.8-63.6-8.4c-25.7-7.9-49.5-25.4-65.2-47.9c-4.8-6.9-12-20.3-12-22.4c0-2.7,42.2-21.2,69.7-30.6
	c10-3.4,28.4-8.9,33.5-10.1c3.8-0.8,21.2-5.9,30.7-8.9c14-4.4,21.6-8.8,24.3-14c1.2-2.3,4.1-16.4,5.6-27.1c0.4-3,1.1-8.2,1.6-11.4
	c1.5-10.2,1.2-12.3-1.9-15.7c-11.1-11.8-15.9-23.1-18.5-43.6c-1.3-10.2-5-28.2-6.2-30.9c-0.6-1.2-3-3.2-5.4-4.5
	c-6.5-3.4-9.2-8.2-10.9-18.8c-1.2-7.8-2.6-12.4-7.2-25.1c-3.1-8.7-4.6-17.2-4.3-24.8c0.3-6.2,0.6-7.4,2.4-9.4c1.9-2,2.6-2.2,5.9-1.8
	c3,0.4,3.6,0.3,3.2-0.7c-2.7-6.9-6.4-39-8.8-75c-0.8-12.3,2-25.9,8.1-38.7c4.9-10.4,10.7-16.6,17.9-19.1c2.2-0.8,5.2-1.9,6.6-2.4
	c1.4-0.5,5-3.3,7.9-6.2c11.2-11.1,20.8-16.9,36.2-21.9c5.3-1.7,13.6-4.6,18.4-6.4c11.8-4.5,19.5-6,30.6-6.1
	c14.7-0.1,23.9,2,45.7,10.5c6.8,2.7,16.4,6,21.3,7.5c18.6,5.5,29.4,12.6,35,23.1c1.6,2.9,4.3,7.6,6.2,10.3
	c6.1,9.2,7.4,12.7,9.6,25.9c3.9,23.2,1.9,54.6-5.3,85.9c-3,12.8-3.1,14-2.1,14c0.5,0,1.1-0.4,1.4-0.8c0.9-1.4,4.3-0.9,6.3,0.9
	c2.9,2.7,3.7,5.6,3.8,13.5c0,8.6-1.8,17.4-6.2,30c-1.8,5.1-3.7,12.5-4.2,16.4c-1.3,9.5-4.8,16.3-9.8,18.6c-1.9,0.9-4.2,2.4-5,3.3
	c-3,3.2-5,12.1-9.7,41.7c-2.3,14.6-6.4,23.7-15,33l-4.3,4.7l0.4,11c0.6,15.4,3.6,34.4,6.2,39.9c4.6,9.5,14.5,14,51.9,23.6
	c44.1,11.3,64.4,18.3,103.6,36.1c2,0.9,6,1.6,6.5,1.6l0.1,77.4c-2,1.2-19.5,3.1-44.7,3.8C634.1,657.5,406,657.5,375.4,656.5z"/>
<g id="g3234">
	<g id="g3229">
		<g id="g3175">
			<path id="path3177" inkscape:connector-curvature="0" sodipodi:nodetypes="cssssssssssssssscccc" class="st2" d="M707.1,63.5
				c1.1,0.2,2.2,0.4,3.4,0.6c4.4,0.9,8.8,2,13.1,3.4c4.3,1.3,8.5,2.9,12.5,4.6s8.1,3.6,11.9,5.7c3.9,2.1,7.6,4.4,11.3,6.8
				c3.6,2.4,7.1,5.1,10.5,7.8s6.6,5.7,9.7,8.8c3.1,3.1,6,6.3,8.8,9.7c2.8,3.4,5.4,6.9,7.8,10.5c2.4,3.6,4.7,7.4,6.8,11.3
				s4,7.8,5.7,11.9c1.7,4.1,3.3,8.3,4.6,12.5c1.3,4.3,2.4,8.6,3.4,13.1s1.6,9,2.1,13.6c0.5,4.6,0.7,9.3,0.7,14v9.2l-112.2,0v-69.7
				V63.5z"/>
		</g>
		<path id="path3188" inkscape:connector-curvature="0" class="st3" d="M748.5,167l11.9-30.9h4.4l12.7,30.9h-4.7l-3.6-9.4h-12.9
			l-3.4,9.4H748.5z M757.4,154.3h10.5l-3.2-8.6c-1.1-2.9-1.8-5-2.2-6.4c-0.4,2-0.9,3.9-1.7,5.9L757.4,154.3z"/>
	</g>
	<g id="g3224">
		<g id="g3172" transform="matrix(1,0,0,1.00167,0,-0.49931864)">
			<path id="path3170" inkscape:connector-curvature="0" sodipodi:nodetypes="ccccccc" class="st4" d="M819.3,206.9v10.9
				c0,46.9,0,91.8,0,138.8H707.1v-71.8v-77.9L819.3,206.9z"/>
		</g>
		<path id="path3190" inkscape:connector-curvature="0" class="st5" d="M751.5,300v-30.9h11.6c3.6,0,6.2,0.8,7.8,2.3
			c1.6,1.6,2.4,3.4,2.4,5.6c0,3-1.4,5.1-4.3,6.6c3.9,1.1,5.8,3.6,5.8,7.5c0,6-3.9,8.9-11.6,8.9H751.5z M755.6,282.1h6.7
			c1.5,0,2.7-0.1,3.7-0.3c1-0.2,1.8-0.7,2.4-1.4c0.6-0.7,1-1.7,1-2.9c0-1.2-0.3-2.2-0.9-3c-0.6-0.7-1.4-1.2-2.4-1.4
			c-1-0.2-2.5-0.3-4.3-0.3h-6.2L755.6,282.1z M755.6,296.4h7.7c1,0,1.9,0,2.7-0.1c0.8-0.1,1.5-0.4,2.3-0.8c0.8-0.4,1.3-1,1.7-1.7
			c0.4-0.7,0.6-1.6,0.6-2.7c0-1.7-0.5-3-1.6-3.9c-1.1-0.9-3.2-1.4-6.2-1.4h-7.1V296.4z"/>
	</g>
	<g id="g3220">
		<path id="path3165" inkscape:connector-curvature="0" sodipodi:nodetypes="cccccccc" class="st6" d="M819.3,356v22.2
			c0,40.4,0,80.8,0,121.2v8.1l-112.2,0v-75.3V356L819.3,356z"/>
		<path id="path3192" inkscape:connector-curvature="0" class="st7" d="M772.6,438.2l4.1,1c-1.8,6.9-6,10.3-12.8,10.3
			c-5,0-8.6-1.6-11-4.7c-2.3-3.1-3.5-7-3.5-11.6c0-5.2,1.4-9.1,4.2-11.8c2.8-2.6,6.3-4,10.4-4c6.4,0,10.5,3,12.2,9l-4,1
			c-1.4-4.3-4.1-6.5-8.3-6.5c-3.3,0-5.9,1.1-7.7,3.2c-1.8,2.2-2.6,5.2-2.6,9c0,4.5,1,7.7,2.9,9.7c1.9,2,4.3,3,7.1,3
			C768.4,446.1,771.4,443.4,772.6,438.2L772.6,438.2z"/>
	</g>
	<g id="g3216">
		<path id="path3163" inkscape:connector-curvature="0" sodipodi:nodetypes="cssssssssssssssscccc" class="st8" d="M819.3,507.5
			v12.1c0,4.7-0.2,9.4-0.7,14s-1.2,9.1-2.1,13.6c-0.9,4.4-2,8.8-3.4,13.1c-1.3,4.3-2.9,8.5-4.6,12.5c-1.7,4.1-3.6,8.1-5.7,11.9
			s-4.4,7.6-6.8,11.3c-2.4,3.6-5.1,7.1-7.8,10.5c-2.8,3.4-5.7,6.6-8.8,9.7c-3.1,3.1-6.3,6-9.7,8.8c-3.4,2.8-6.9,5.4-10.5,7.8
			s-7.4,4.7-11.3,6.8s-7.8,4-11.9,5.7s-8.3,3.3-12.5,4.6c-4.3,1.3-8.6,2.4-13.1,3.4c-1.1,0.2-2.2,0.4-3.4,0.6v-73.8v-72.6
			L819.3,507.5z"/>
		<path id="path3194" inkscape:connector-curvature="0" class="st9" d="M751.6,584v-30.9h10.7c2,0,3.8,0.1,5.4,0.4
			c1.6,0.3,3.1,1,4.6,2.1c1.5,1.2,2.6,2.8,3.6,4.9c0.9,2.1,1.4,4.7,1.4,7.8c0,4.7-1.1,8.4-3.3,11.3c-2.2,2.9-5.9,4.3-11.1,4.3H751.6
			z M755.7,580.4h6.6c2.7,0,4.8-0.4,6.2-1.2c1.4-0.8,2.5-2.1,3.3-4c0.8-1.9,1.1-4.2,1.1-6.9c0-1.9-0.2-3.6-0.6-5
			c-0.4-1.4-0.9-2.6-1.7-3.6c-0.8-1-1.7-1.7-2.9-2.2c-1.2-0.5-3-0.8-5.6-0.8h-6.5V580.4z"/>
	</g>
</g>
</svg>
