<svg xmlns="http://www.w3.org/2000/svg" xmlns:xlink="http://www.w3.org/1999/xlink" width="339" zoomAndPan="magnify" viewBox="0 0 254.25 324.749995" height="433" preserveAspectRatio="xMidYMid meet" version="1.0"><defs><clipPath id="2eeca2be3a"><path d="M 0.414062 0.699219 L 253.171875 0.699219 L 253.171875 323.746094 L 0.414062 323.746094 Z M 0.414062 0.699219 " clip-rule="nonzero"/></clipPath><clipPath id="0f524cab1f"><path d="M 38 10 L 253.171875 10 L 253.171875 313 L 38 313 Z M 38 10 " clip-rule="nonzero"/></clipPath><clipPath id="a5ae226700"><path d="M 104 19 L 253.171875 19 L 253.171875 112 L 104 112 Z M 104 19 " clip-rule="nonzero"/></clipPath><clipPath id="3ff4985338"><path d="M 197 89 L 253.171875 89 L 253.171875 106 L 197 106 Z M 197 89 " clip-rule="nonzero"/></clipPath><clipPath id="81dbac2b0e"><path d="M 127 301 L 213 301 L 213 323.746094 L 127 323.746094 Z M 127 301 " clip-rule="nonzero"/></clipPath><clipPath id="c0dfc899fa"><path d="M 80.511719 31.582031 L 82.828125 31.582031 L 82.828125 39 L 80.511719 39 Z M 80.511719 31.582031 " clip-rule="nonzero"/></clipPath><clipPath id="0988b56d69"><path d="M 81.550781 31.746094 C 80.980469 32.59375 80.648438 33.617188 80.648438 34.71875 C 80.648438 36.453125 81.476562 37.996094 82.765625 38.96875 L 81.550781 31.746094 " clip-rule="nonzero"/></clipPath></defs><g clip-path="url(#2eeca2be3a)"><path fill="#4a9bdb" d="M 0.429688 110.003906 L 17.71875 216.417969 L 39.121094 262.082031 L 127.195312 323.726562 L 198.820312 323.726562 L 206.222656 312.835938 L 214.46875 300.714844 L 231.757812 247.277344 L 246.554688 170.007812 L 242.445312 130.554688 L 253.160156 96.046875 L 231.757812 19.601562 L 192.242188 26.167969 L 109.902344 22.886719 L 78.03125 10.789062 L 51.453125 0.695312 L 32.519531 26.167969 L 0.429688 110.003906 " fill-opacity="1" fill-rule="nonzero"/></g><g clip-path="url(#0f524cab1f)"><path fill="#62cce5" d="M 38.300781 195.507812 L 104.972656 245.847656 L 141.195312 246.878906 L 191.308594 275.550781 L 179.0625 301.949219 L 206.21875 312.835938 L 214.464844 300.714844 L 231.757812 247.277344 L 246.554688 170.007812 L 242.445312 130.554688 L 253.15625 96.046875 L 231.757812 19.601562 L 192.242188 26.171875 L 109.902344 22.886719 L 78.03125 10.789062 L 90.96875 87.816406 L 73.703125 139.199219 L 38.300781 195.507812 " fill-opacity="1" fill-rule="nonzero"/></g><path fill="#4a9bdb" d="M 186.265625 217.285156 L 141.195312 246.878906 L 212.042969 235.882812 L 186.265625 217.285156 " fill-opacity="1" fill-rule="nonzero"/><path fill="#4a9bdb" d="M 201.695312 142.652344 L 234.632812 204.542969 L 190.792969 221.804688 L 201.695312 142.652344 " fill-opacity="1" fill-rule="nonzero"/><path fill="#4a9bdb" d="M 210.652344 197.351562 L 190.792969 221.804688 L 158.894531 195.5 L 177.621094 188.308594 L 210.652344 197.351562 " fill-opacity="1" fill-rule="nonzero"/><path fill="#8edaf1" d="M 174.332031 237.628906 L 194.5 224.066406 L 212.042969 235.882812 L 200.570312 244.410156 L 174.332031 237.628906 " fill-opacity="1" fill-rule="nonzero"/><g clip-path="url(#a5ae226700)"><path fill="#8edaf1" d="M 104.972656 89.464844 L 109.902344 22.886719 L 192.242188 26.171875 L 231.757812 19.601562 L 253.152344 96.039062 L 174.636719 111.863281 L 104.972656 89.464844 " fill-opacity="1" fill-rule="nonzero"/></g><path fill="#2c66a6" d="M 239.566406 92.753906 L 252.261719 98.917969 L 242.449219 130.566406 L 244.851562 153.585938 L 228.867188 156.867188 L 202.394531 144.425781 L 190.792969 115.152344 L 197.480469 97.375 L 239.566406 92.753906 " fill-opacity="1" fill-rule="nonzero"/><path fill="#4a9bdb" d="M 203.230469 105.980469 L 194.015625 123.277344 L 190.792969 115.148438 L 197.484375 97.375 L 203.230469 105.980469 " fill-opacity="1" fill-rule="nonzero"/><path fill="#4a9bdb" d="M 157.660156 98.914062 L 160.953125 96.039062 L 172.683594 121.316406 L 197.011719 175.585938 L 172.601562 192.214844 L 152.722656 131.386719 L 148.191406 111.65625 L 157.660156 98.914062 " fill-opacity="1" fill-rule="nonzero"/><path fill="#2c66a6" d="M 152.722656 98.914062 L 160.953125 96.039062 L 152.722656 119.464844 L 152.722656 131.386719 L 111.558594 156.867188 L 73.691406 139.195312 L 62.164062 110.011719 L 91.800781 92.753906 L 152.722656 98.914062 " fill-opacity="1" fill-rule="nonzero"/><path fill="#16344f" d="M 160.953125 96.039062 L 155.1875 105.285156 L 93.449219 96.039062 L 62.164062 110.011719 L 90.976562 87.820312 L 160.953125 96.039062 " fill-opacity="1" fill-rule="nonzero"/><g clip-path="url(#3ff4985338)"><path fill="#16344f" d="M 197.484375 97.375 L 239.773438 89.359375 L 253.152344 96.039062 L 252.261719 98.917969 L 240.082031 95.527344 L 203.230469 105.980469 L 197.484375 97.375 " fill-opacity="1" fill-rule="nonzero"/></g><path fill="#8edaf1" d="M 195.550781 102.507812 L 190.792969 115.148438 L 217.753906 183.171875 L 183.179688 179.472656 L 192.027344 164.472656 L 164.863281 104.464844 L 180.710938 100.765625 L 195.550781 102.507812 " fill-opacity="1" fill-rule="nonzero"/><path fill="#8edaf1" d="M 220.429688 250.78125 C 219.8125 250.988281 203.964844 262.90625 203.964844 262.90625 L 173.507812 262.90625 L 140.125 247.074219 L 175.769531 242.867188 L 213.226562 245.847656 L 225.964844 247.722656 L 220.429688 250.78125 " fill-opacity="1" fill-rule="nonzero"/><path fill="#16344f" d="M 212.042969 235.882812 C 211.222656 235.882812 195.117188 239.480469 195.117188 239.480469 L 179.0625 234.347656 L 141.195312 246.878906 L 173.710938 249.34375 L 196.96875 249.34375 L 226.398438 247.699219 L 212.042969 235.882812 " fill-opacity="1" fill-rule="nonzero"/><path fill="#4a9bdb" d="M 203.140625 268.25 L 175.769531 268.25 L 191.308594 275.550781 Z M 203.140625 268.25 " fill-opacity="1" fill-rule="nonzero"/><g clip-path="url(#81dbac2b0e)"><path fill="#2c66a6" d="M 127.199219 323.734375 L 161.980469 301.949219 L 205.203125 303.183594 L 212.0625 304.25 L 198.820312 323.734375 L 127.199219 323.734375 " fill-opacity="1" fill-rule="nonzero"/></g><path fill="#16344f" d="M 104.972656 245.847656 L 82.746094 205.777344 L 38.292969 195.5 Z M 104.972656 245.847656 " fill-opacity="1" fill-rule="nonzero"/><path fill="#16344f" d="M 187.023438 179.882812 L 167.949219 183.171875 L 158.894531 195.5 L 185.15625 195.5 L 200.066406 199.261719 L 210.652344 197.351562 L 217.753906 183.171875 L 187.023438 179.882812 " fill-opacity="1" fill-rule="nonzero"/><path fill="#4a9bdb" d="M 139.589844 130.878906 L 105.9375 137.148438 L 94.128906 128.316406 C 94.128906 128.316406 110.6875 117.246094 111.402344 117.203125 C 112.121094 117.15625 141.382812 119.679688 141.382812 119.679688 L 139.589844 130.878906 " fill-opacity="1" fill-rule="nonzero"/><path fill="#4a9bdb" d="M 234.28125 129.636719 L 207.515625 131.351562 C 207.515625 131.351562 212.53125 117.199219 213.148438 117.199219 C 213.761719 117.199219 237.121094 119.714844 237.121094 119.714844 L 239.078125 126.171875 L 234.28125 129.636719 " fill-opacity="1" fill-rule="nonzero"/><path fill="#8edaf1" d="M 202.398438 144.425781 L 244.851562 153.585938 L 246.257812 171.566406 L 202.398438 144.425781 " fill-opacity="1" fill-rule="nonzero"/><g clip-path="url(#c0dfc899fa)"><g clip-path="url(#0988b56d69)"><path fill="#5bb4e0" d="M 80.648438 38.96875 L 82.765625 38.96875 L 82.765625 31.746094 L 80.648438 31.746094 L 80.648438 38.96875 " fill-opacity="1" fill-rule="nonzero"/></g></g><path fill="#73d1de" d="M 85.988281 29.382812 C 84.140625 29.382812 82.511719 30.320312 81.550781 31.746094 L 82.765625 38.96875 C 83.660156 39.648438 84.777344 40.050781 85.988281 40.050781 C 88.9375 40.050781 91.328125 37.660156 91.328125 34.714844 C 91.328125 31.769531 88.9375 29.382812 85.988281 29.382812 M 85.988281 38.425781 C 83.9375 38.425781 82.273438 36.765625 82.273438 34.714844 C 82.273438 32.667969 83.9375 31.007812 85.988281 31.007812 C 88.039062 31.007812 89.703125 32.667969 89.703125 34.714844 C 89.703125 36.765625 88.039062 38.425781 85.988281 38.425781 " fill-opacity="1" fill-rule="nonzero"/><path fill="#83d5d4" d="M 85.988281 31.007812 C 83.9375 31.007812 82.273438 32.667969 82.273438 34.71875 C 82.273438 36.765625 83.9375 38.425781 85.988281 38.425781 C 88.039062 38.425781 89.703125 36.765625 89.703125 34.71875 C 89.703125 32.667969 88.039062 31.007812 85.988281 31.007812 M 85.988281 36.921875 C 84.765625 36.921875 83.777344 35.933594 83.777344 34.71875 C 83.777344 33.496094 84.765625 32.507812 85.988281 32.507812 C 87.207031 32.507812 88.199219 33.496094 88.199219 34.71875 C 88.199219 35.933594 87.207031 36.921875 85.988281 36.921875 " fill-opacity="1" fill-rule="nonzero"/><path fill="#e7f7fa" d="M 85.988281 32.511719 C 84.765625 32.511719 83.777344 33.5 83.777344 34.71875 C 83.777344 35.9375 84.765625 36.925781 85.988281 36.925781 C 87.207031 36.925781 88.195312 35.9375 88.195312 34.71875 C 88.195312 33.5 87.207031 32.511719 85.988281 32.511719 " fill-opacity="1" fill-rule="nonzero"/><path fill="#9adee8" d="M 211.765625 31.007812 C 208.816406 31.007812 206.425781 33.394531 206.425781 36.339844 C 206.425781 39.285156 208.816406 41.671875 211.765625 41.671875 C 214.714844 41.671875 217.105469 39.285156 217.105469 36.339844 C 217.105469 33.394531 214.714844 31.007812 211.765625 31.007812 M 211.765625 40.050781 C 209.714844 40.050781 208.050781 38.390625 208.050781 36.339844 C 208.050781 34.289062 209.714844 32.628906 211.765625 32.628906 C 213.816406 32.628906 215.480469 34.289062 215.480469 36.339844 C 215.480469 38.390625 213.816406 40.050781 211.765625 40.050781 " fill-opacity="1" fill-rule="nonzero"/><path fill="#a6e1de" d="M 211.765625 32.632812 C 209.710938 32.632812 208.050781 34.292969 208.050781 36.339844 C 208.050781 38.390625 209.710938 40.050781 211.765625 40.050781 C 213.816406 40.050781 215.480469 38.390625 215.480469 36.339844 C 215.480469 34.292969 213.816406 32.632812 211.765625 32.632812 M 211.765625 38.546875 C 210.542969 38.546875 209.554688 37.558594 209.554688 36.339844 C 209.554688 35.121094 210.542969 34.136719 211.765625 34.136719 C 212.984375 34.136719 213.972656 35.121094 213.972656 36.339844 C 213.972656 37.558594 212.984375 38.546875 211.765625 38.546875 " fill-opacity="1" fill-rule="nonzero"/><path fill="#eef9fd" d="M 211.765625 34.132812 C 210.542969 34.132812 209.554688 35.121094 209.554688 36.339844 C 209.554688 37.558594 210.542969 38.546875 211.765625 38.546875 C 212.984375 38.546875 213.976562 37.558594 213.976562 36.339844 C 213.976562 35.121094 212.984375 34.132812 211.765625 34.132812 " fill-opacity="1" fill-rule="nonzero"/><path fill="#3891ba" d="M 99.894531 132.628906 C 99.871094 132.835938 99.859375 133.042969 99.859375 133.257812 C 99.859375 136.203125 102.25 138.59375 105.199219 138.59375 C 106.929688 138.59375 108.464844 137.769531 109.441406 136.496094 L 105.9375 137.148438 L 105.65625 136.9375 C 105.507812 136.957031 105.355469 136.96875 105.199219 136.96875 C 103.351562 136.96875 101.816406 135.617188 101.53125 133.851562 L 99.894531 132.628906 " fill-opacity="1" fill-rule="nonzero"/><path fill="#5bb4e0" d="M 105.199219 127.925781 C 102.460938 127.925781 100.207031 129.980469 99.894531 132.628906 L 101.53125 133.851562 C 101.5 133.65625 101.484375 133.460938 101.484375 133.257812 C 101.484375 131.210938 103.148438 129.550781 105.199219 129.550781 C 107.25 129.550781 108.914062 131.210938 108.914062 133.257812 C 108.914062 135.152344 107.492188 136.710938 105.65625 136.9375 L 105.9375 137.148438 L 109.441406 136.496094 C 110.128906 135.601562 110.539062 134.476562 110.539062 133.257812 C 110.539062 130.3125 108.148438 127.925781 105.199219 127.925781 " fill-opacity="1" fill-rule="nonzero"/><path fill="#46c2ca" d="M 101.53125 133.851562 C 101.816406 135.617188 103.351562 136.96875 105.199219 136.96875 C 105.355469 136.96875 105.507812 136.957031 105.65625 136.9375 L 101.53125 133.851562 " fill-opacity="1" fill-rule="nonzero"/><path fill="#6bcfe4" d="M 105.199219 129.550781 C 103.148438 129.550781 101.484375 131.210938 101.484375 133.257812 C 101.484375 133.460938 101.5 133.65625 101.53125 133.851562 L 105.65625 136.9375 C 107.492188 136.710938 108.914062 135.152344 108.914062 133.257812 C 108.914062 131.210938 107.25 129.550781 105.199219 129.550781 M 105.199219 135.464844 C 103.976562 135.464844 102.988281 134.476562 102.988281 133.257812 C 102.988281 132.039062 103.976562 131.054688 105.199219 131.054688 C 106.417969 131.054688 107.40625 132.039062 107.40625 133.257812 C 107.40625 134.476562 106.417969 135.464844 105.199219 135.464844 " fill-opacity="1" fill-rule="nonzero"/><path fill="#e2f6fd" d="M 105.199219 131.054688 C 103.976562 131.054688 102.988281 132.039062 102.988281 133.257812 C 102.988281 134.476562 103.976562 135.464844 105.199219 135.464844 C 106.417969 135.464844 107.40625 134.476562 107.40625 133.257812 C 107.40625 132.039062 106.417969 131.054688 105.199219 131.054688 " fill-opacity="1" fill-rule="nonzero"/><path fill="#73d1de" d="M 93.144531 181.382812 C 90.195312 181.382812 87.804688 183.769531 87.804688 186.714844 C 87.804688 189.660156 90.195312 192.046875 93.144531 192.046875 C 96.09375 192.046875 98.488281 189.660156 98.488281 186.714844 C 98.488281 183.769531 96.09375 181.382812 93.144531 181.382812 M 93.144531 190.421875 C 91.09375 190.421875 89.429688 188.761719 89.429688 186.714844 C 89.429688 184.667969 91.09375 183.003906 93.144531 183.003906 C 95.195312 183.003906 96.859375 184.667969 96.859375 186.714844 C 96.859375 188.761719 95.195312 190.421875 93.144531 190.421875 " fill-opacity="1" fill-rule="nonzero"/><path fill="#83d5d4" d="M 93.144531 183.003906 C 91.09375 183.003906 89.429688 184.667969 89.429688 186.714844 C 89.429688 188.761719 91.09375 190.421875 93.144531 190.421875 C 95.195312 190.421875 96.859375 188.761719 96.859375 186.714844 C 96.859375 184.667969 95.195312 183.003906 93.144531 183.003906 M 93.144531 188.921875 C 91.925781 188.921875 90.9375 187.933594 90.9375 186.714844 C 90.9375 185.496094 91.925781 184.507812 93.144531 184.507812 C 94.367188 184.507812 95.355469 185.496094 95.355469 186.714844 C 95.355469 187.933594 94.367188 188.921875 93.144531 188.921875 " fill-opacity="1" fill-rule="nonzero"/><path fill="#e7f7fa" d="M 93.144531 184.507812 C 91.925781 184.507812 90.9375 185.496094 90.9375 186.714844 C 90.9375 187.933594 91.925781 188.921875 93.144531 188.921875 C 94.367188 188.921875 95.355469 187.933594 95.355469 186.714844 C 95.355469 185.496094 94.367188 184.507812 93.144531 184.507812 " fill-opacity="1" fill-rule="nonzero"/><path fill="#73d1de" d="M 226.375 207.792969 L 222.046875 209.5 C 222.179688 209.507812 222.308594 209.515625 222.445312 209.515625 C 224 209.515625 225.398438 208.851562 226.375 207.792969 " fill-opacity="1" fill-rule="nonzero"/><path fill="#5bb4e0" d="M 222.445312 198.847656 C 219.496094 198.847656 217.105469 201.234375 217.105469 204.179688 C 217.105469 206.992188 219.28125 209.296875 222.046875 209.5 L 226.375 207.792969 C 227.25 206.84375 227.785156 205.574219 227.785156 204.179688 C 227.785156 201.234375 225.394531 198.847656 222.445312 198.847656 M 222.445312 207.890625 C 220.394531 207.890625 218.730469 206.230469 218.730469 204.179688 C 218.730469 202.132812 220.394531 200.472656 222.445312 200.472656 C 224.496094 200.472656 226.160156 202.132812 226.160156 204.179688 C 226.160156 206.230469 224.496094 207.890625 222.445312 207.890625 " fill-opacity="1" fill-rule="nonzero"/><path fill="#6bcfe4" d="M 222.445312 200.472656 C 220.394531 200.472656 218.730469 202.132812 218.730469 204.179688 C 218.730469 206.230469 220.394531 207.890625 222.445312 207.890625 C 224.496094 207.890625 226.160156 206.230469 226.160156 204.179688 C 226.160156 202.132812 224.496094 200.472656 222.445312 200.472656 M 222.445312 206.386719 C 221.226562 206.386719 220.234375 205.398438 220.234375 204.179688 C 220.234375 202.960938 221.226562 201.972656 222.445312 201.972656 C 223.667969 201.972656 224.65625 202.960938 224.65625 204.179688 C 224.65625 205.398438 223.667969 206.386719 222.445312 206.386719 " fill-opacity="1" fill-rule="nonzero"/><path fill="#e2f6fd" d="M 222.445312 201.972656 C 221.226562 201.972656 220.234375 202.960938 220.234375 204.179688 C 220.234375 205.398438 221.226562 206.386719 222.445312 206.386719 C 223.667969 206.386719 224.65625 205.398438 224.65625 204.179688 C 224.65625 202.960938 223.667969 201.972656 222.445312 201.972656 " fill-opacity="1" fill-rule="nonzero"/><path fill="#5bb4e0" d="M 146.984375 250.328125 C 147.585938 252.609375 149.671875 254.292969 152.148438 254.292969 C 152.699219 254.292969 153.234375 254.207031 153.734375 254.050781 L 151.007812 252.492188 C 150.507812 252.332031 150.058594 252.070312 149.675781 251.730469 L 148.394531 250.996094 L 146.984375 250.328125 " fill-opacity="1" fill-rule="nonzero"/><path fill="#73d1de" d="M 148.394531 250.996094 L 149.675781 251.730469 C 149.589844 251.652344 149.503906 251.570312 149.425781 251.484375 L 148.394531 250.996094 M 151.007812 252.492188 L 153.734375 254.050781 C 153.945312 253.988281 154.152344 253.910156 154.347656 253.820312 L 151.90625 252.660156 C 151.59375 252.640625 151.292969 252.582031 151.007812 252.492188 " fill-opacity="1" fill-rule="nonzero"/><path fill="#9adee8" d="M 147.0625 247.320312 C 146.894531 247.839844 146.804688 248.390625 146.804688 248.960938 C 146.804688 249.433594 146.867188 249.890625 146.984375 250.328125 L 148.394531 250.996094 L 149.425781 251.484375 C 148.808594 250.824219 148.433594 249.9375 148.433594 248.960938 C 148.433594 248.421875 148.546875 247.914062 148.753906 247.449219 L 147.0625 247.320312 M 155.730469 247.980469 C 155.816406 248.292969 155.859375 248.621094 155.859375 248.960938 C 155.859375 251.007812 154.195312 252.667969 152.148438 252.667969 C 152.066406 252.667969 151.984375 252.667969 151.90625 252.660156 L 154.347656 253.820312 C 156.199219 252.984375 157.488281 251.121094 157.488281 248.960938 C 157.488281 248.671875 157.460938 248.386719 157.417969 248.109375 L 155.730469 247.980469 " fill-opacity="1" fill-rule="nonzero"/><path fill="#236c75" d="M 152.148438 243.628906 C 149.769531 243.628906 147.757812 245.179688 147.0625 247.320312 L 148.753906 247.449219 C 149.332031 246.152344 150.632812 245.25 152.148438 245.25 C 153.855469 245.25 155.296875 246.40625 155.730469 247.980469 L 157.417969 248.109375 C 157.007812 245.566406 154.804688 243.628906 152.148438 243.628906 " fill-opacity="1" fill-rule="nonzero"/><path fill="#6bcfe4" d="M 149.675781 251.730469 C 150.058594 252.070312 150.507812 252.332031 151.007812 252.492188 L 149.675781 251.730469 " fill-opacity="1" fill-rule="nonzero"/><path fill="#83d5d4" d="M 149.425781 251.484375 C 149.503906 251.570312 149.589844 251.652344 149.675781 251.730469 L 151.007812 252.492188 C 151.292969 252.582031 151.59375 252.640625 151.90625 252.660156 L 149.425781 251.484375 " fill-opacity="1" fill-rule="nonzero"/><path fill="#a6e1de" d="M 148.753906 247.449219 C 148.546875 247.914062 148.433594 248.421875 148.433594 248.960938 C 148.433594 249.9375 148.808594 250.824219 149.425781 251.484375 L 151.90625 252.660156 C 151.984375 252.667969 152.066406 252.667969 152.148438 252.667969 C 154.195312 252.667969 155.859375 251.007812 155.859375 248.960938 C 155.859375 248.621094 155.816406 248.292969 155.730469 247.980469 L 154.058594 247.851562 C 154.246094 248.179688 154.355469 248.558594 154.355469 248.960938 C 154.355469 250.179688 153.367188 251.167969 152.148438 251.167969 C 150.925781 251.167969 149.9375 250.179688 149.9375 248.960938 C 149.9375 248.4375 150.121094 247.953125 150.425781 247.578125 L 148.753906 247.449219 " fill-opacity="1" fill-rule="nonzero"/><path fill="#35ba9d" d="M 152.148438 245.25 C 150.632812 245.25 149.332031 246.152344 148.753906 247.449219 L 150.425781 247.578125 C 150.828125 247.074219 151.453125 246.753906 152.148438 246.753906 C 152.964844 246.753906 153.675781 247.195312 154.058594 247.851562 L 155.730469 247.980469 C 155.296875 246.40625 153.855469 245.25 152.148438 245.25 " fill-opacity="1" fill-rule="nonzero"/><path fill="#eef9fd" d="M 150.425781 247.578125 C 150.121094 247.953125 149.9375 248.4375 149.9375 248.960938 C 149.9375 250.179688 150.925781 251.167969 152.148438 251.167969 C 153.367188 251.167969 154.355469 250.179688 154.355469 248.960938 C 154.355469 248.558594 154.246094 248.179688 154.058594 247.851562 L 150.425781 247.578125 " fill-opacity="1" fill-rule="nonzero"/><path fill="#d7f1e7" d="M 152.148438 246.753906 C 151.453125 246.753906 150.828125 247.074219 150.425781 247.578125 L 154.058594 247.851562 C 153.675781 247.195312 152.964844 246.753906 152.148438 246.753906 " fill-opacity="1" fill-rule="nonzero"/><path fill="#73d1de" d="M 217.105469 262.96875 C 214.15625 262.96875 211.765625 265.355469 211.765625 268.300781 C 211.765625 271.246094 214.15625 273.632812 217.105469 273.632812 C 220.054688 273.632812 222.445312 271.246094 222.445312 268.300781 C 222.445312 265.355469 220.054688 262.96875 217.105469 262.96875 M 217.105469 272.011719 C 215.054688 272.011719 213.390625 270.351562 213.390625 268.300781 C 213.390625 266.253906 215.054688 264.59375 217.105469 264.59375 C 219.15625 264.59375 220.820312 266.253906 220.820312 268.300781 C 220.820312 270.351562 219.15625 272.011719 217.105469 272.011719 " fill-opacity="1" fill-rule="nonzero"/><path fill="#83d5d4" d="M 217.105469 264.59375 C 215.054688 264.59375 213.390625 266.253906 213.390625 268.300781 C 213.390625 270.351562 215.054688 272.011719 217.105469 272.011719 C 219.15625 272.011719 220.820312 270.351562 220.820312 268.300781 C 220.820312 266.253906 219.15625 264.59375 217.105469 264.59375 M 217.105469 270.507812 C 215.886719 270.507812 214.894531 269.519531 214.894531 268.300781 C 214.894531 267.082031 215.886719 266.09375 217.105469 266.09375 C 218.324219 266.09375 219.316406 267.082031 219.316406 268.300781 C 219.316406 269.519531 218.324219 270.507812 217.105469 270.507812 " fill-opacity="1" fill-rule="nonzero"/><path fill="#e7f7fa" d="M 217.105469 266.09375 C 215.886719 266.09375 214.894531 267.082031 214.894531 268.300781 C 214.894531 269.519531 215.886719 270.507812 217.105469 270.507812 C 218.324219 270.507812 219.316406 269.519531 219.316406 268.300781 C 219.316406 267.082031 218.324219 266.09375 217.105469 266.09375 " fill-opacity="1" fill-rule="nonzero"/><path fill="#3891ba" d="M 162.828125 303.078125 C 159.878906 303.078125 157.488281 305.46875 157.488281 308.414062 C 157.488281 311.355469 159.878906 313.746094 162.828125 313.746094 C 165.777344 313.746094 168.167969 311.355469 168.167969 308.414062 C 168.167969 305.46875 165.777344 303.078125 162.828125 303.078125 M 162.828125 312.121094 C 160.773438 312.121094 159.113281 310.460938 159.113281 308.414062 C 159.113281 306.363281 160.773438 304.703125 162.828125 304.703125 C 164.878906 304.703125 166.542969 306.363281 166.542969 308.414062 C 166.542969 310.460938 164.878906 312.121094 162.828125 312.121094 " fill-opacity="1" fill-rule="nonzero"/><path fill="#46c2ca" d="M 162.828125 304.703125 C 160.773438 304.703125 159.113281 306.363281 159.113281 308.414062 C 159.113281 310.460938 160.773438 312.121094 162.828125 312.121094 C 164.878906 312.121094 166.542969 310.460938 166.542969 308.414062 C 166.542969 306.363281 164.878906 304.703125 162.828125 304.703125 M 162.828125 310.621094 C 161.609375 310.621094 160.617188 309.632812 160.617188 308.414062 C 160.617188 307.195312 161.609375 306.207031 162.828125 306.207031 C 164.046875 306.207031 165.039062 307.195312 165.039062 308.414062 C 165.039062 309.632812 164.046875 310.621094 162.828125 310.621094 " fill-opacity="1" fill-rule="nonzero"/><path fill="#dbf3f5" d="M 162.828125 306.207031 C 161.609375 306.207031 160.617188 307.195312 160.617188 308.414062 C 160.617188 309.632812 161.609375 310.621094 162.828125 310.621094 C 164.046875 310.621094 165.039062 309.632812 165.039062 308.414062 C 165.039062 307.195312 164.046875 306.207031 162.828125 306.207031 " fill-opacity="1" fill-rule="nonzero"/><path fill="#5bb4e0" d="M 100.699219 251.167969 C 97.75 251.167969 95.359375 253.554688 95.359375 256.5 C 95.359375 259.445312 97.75 261.832031 100.699219 261.832031 C 103.648438 261.832031 106.039062 259.445312 106.039062 256.5 C 106.039062 253.554688 103.648438 251.167969 100.699219 251.167969 M 100.699219 260.210938 C 98.648438 260.210938 96.984375 258.550781 96.984375 256.5 C 96.984375 254.453125 98.648438 252.789062 100.699219 252.789062 C 102.75 252.789062 104.414062 254.453125 104.414062 256.5 C 104.414062 258.550781 102.75 260.210938 100.699219 260.210938 " fill-opacity="1" fill-rule="nonzero"/><path fill="#6bcfe4" d="M 100.699219 252.789062 C 98.648438 252.789062 96.984375 254.453125 96.984375 256.5 C 96.984375 258.550781 98.648438 260.210938 100.699219 260.210938 C 102.75 260.210938 104.414062 258.550781 104.414062 256.5 C 104.414062 254.453125 102.75 252.789062 100.699219 252.789062 M 100.699219 258.707031 C 99.480469 258.707031 98.488281 257.71875 98.488281 256.5 C 98.488281 255.28125 99.480469 254.292969 100.699219 254.292969 C 101.917969 254.292969 102.910156 255.28125 102.910156 256.5 C 102.910156 257.71875 101.917969 258.707031 100.699219 258.707031 " fill-opacity="1" fill-rule="nonzero"/><path fill="#e2f6fd" d="M 100.699219 254.292969 C 99.480469 254.292969 98.488281 255.28125 98.488281 256.5 C 98.488281 257.71875 99.480469 258.707031 100.699219 258.707031 C 101.917969 258.707031 102.910156 257.71875 102.910156 256.5 C 102.910156 255.28125 101.917969 254.292969 100.699219 254.292969 " fill-opacity="1" fill-rule="nonzero"/><path fill="#3891ba" d="M 241.792969 102.460938 C 238.839844 102.460938 236.449219 104.847656 236.449219 107.792969 C 236.449219 110.738281 238.839844 113.125 241.792969 113.125 C 244.742188 113.125 247.132812 110.738281 247.132812 107.792969 C 247.132812 104.847656 244.742188 102.460938 241.792969 102.460938 M 241.792969 111.5 C 239.738281 111.5 238.078125 109.839844 238.078125 107.792969 C 238.078125 105.742188 239.738281 104.082031 241.792969 104.082031 C 243.84375 104.082031 245.507812 105.742188 245.507812 107.792969 C 245.507812 109.839844 243.84375 111.5 241.792969 111.5 " fill-opacity="1" fill-rule="nonzero"/><path fill="#46c2ca" d="M 241.792969 104.082031 C 239.742188 104.082031 238.078125 105.742188 238.078125 107.792969 C 238.078125 109.839844 239.742188 111.5 241.792969 111.5 C 243.84375 111.5 245.507812 109.839844 245.507812 107.792969 C 245.507812 105.742188 243.84375 104.082031 241.792969 104.082031 M 241.792969 110 C 240.574219 110 239.582031 109.011719 239.582031 107.792969 C 239.582031 106.574219 240.574219 105.585938 241.792969 105.585938 C 243.011719 105.585938 244.003906 106.574219 244.003906 107.792969 C 244.003906 109.011719 243.011719 110 241.792969 110 " fill-opacity="1" fill-rule="nonzero"/><path fill="#dbf3f5" d="M 241.792969 105.585938 C 240.570312 105.585938 239.582031 106.574219 239.582031 107.792969 C 239.582031 109.011719 240.570312 110 241.792969 110 C 243.011719 110 244 109.011719 244 107.792969 C 244 106.574219 243.011719 105.585938 241.792969 105.585938 " fill-opacity="1" fill-rule="nonzero"/><path fill="#5bb4e0" d="M 185.746094 150.910156 C 182.796875 150.910156 180.40625 153.296875 180.40625 156.242188 C 180.40625 159.1875 182.796875 161.574219 185.746094 161.574219 C 187.394531 161.574219 188.871094 160.828125 189.847656 159.65625 L 189.058594 157.917969 C 188.449219 159.125 187.195312 159.953125 185.746094 159.953125 C 183.695312 159.953125 182.03125 158.292969 182.03125 156.242188 C 182.03125 154.195312 183.695312 152.535156 185.746094 152.535156 C 186.066406 152.535156 186.378906 152.574219 186.679688 152.652344 L 185.890625 150.914062 C 185.84375 150.910156 185.792969 150.910156 185.746094 150.910156 " fill-opacity="1" fill-rule="nonzero"/><path fill="#9adee8" d="M 185.890625 150.914062 L 186.679688 152.652344 C 188.277344 153.066406 189.460938 154.515625 189.460938 156.242188 C 189.460938 156.847656 189.316406 157.414062 189.058594 157.917969 L 189.847656 159.65625 C 190.621094 158.730469 191.085938 157.542969 191.085938 156.242188 C 191.085938 153.347656 188.773438 150.988281 185.890625 150.914062 " fill-opacity="1" fill-rule="nonzero"/><path fill="#6bcfe4" d="M 185.746094 152.535156 C 183.695312 152.535156 182.03125 154.195312 182.03125 156.242188 C 182.03125 158.292969 183.695312 159.953125 185.746094 159.953125 C 187.195312 159.953125 188.449219 159.125 189.058594 157.917969 L 186.679688 152.652344 C 186.378906 152.574219 186.066406 152.535156 185.746094 152.535156 M 185.746094 158.449219 C 184.523438 158.449219 183.535156 157.460938 183.535156 156.242188 C 183.535156 155.027344 184.523438 154.039062 185.746094 154.039062 C 186.964844 154.039062 187.953125 155.027344 187.953125 156.242188 C 187.953125 157.460938 186.964844 158.449219 185.746094 158.449219 " fill-opacity="1" fill-rule="nonzero"/><path fill="#a6e1de" d="M 186.679688 152.652344 L 189.058594 157.917969 C 189.316406 157.414062 189.460938 156.847656 189.460938 156.242188 C 189.460938 154.515625 188.277344 153.066406 186.679688 152.652344 " fill-opacity="1" fill-rule="nonzero"/><path fill="#e2f6fd" d="M 185.746094 154.039062 C 184.523438 154.039062 183.535156 155.027344 183.535156 156.242188 C 183.535156 157.460938 184.523438 158.449219 185.746094 158.449219 C 186.964844 158.449219 187.953125 157.460938 187.953125 156.242188 C 187.953125 155.027344 186.964844 154.039062 185.746094 154.039062 " fill-opacity="1" fill-rule="nonzero"/><path fill="#9adee8" d="M 136.742188 48.726562 C 133.792969 48.726562 131.402344 51.113281 131.402344 54.058594 C 131.402344 57.003906 133.792969 59.394531 136.742188 59.394531 C 139.691406 59.394531 142.082031 57.003906 142.082031 54.058594 C 142.082031 51.113281 139.691406 48.726562 136.742188 48.726562 M 136.742188 57.769531 C 134.691406 57.769531 133.027344 56.109375 133.027344 54.058594 C 133.027344 52.011719 134.691406 50.351562 136.742188 50.351562 C 138.796875 50.351562 140.457031 52.011719 140.457031 54.058594 C 140.457031 56.109375 138.796875 57.769531 136.742188 57.769531 " fill-opacity="1" fill-rule="nonzero"/><path fill="#a6e1de" d="M 136.746094 50.351562 C 134.691406 50.351562 133.027344 52.011719 133.027344 54.058594 C 133.027344 56.109375 134.691406 57.765625 136.746094 57.765625 C 138.796875 57.765625 140.457031 56.109375 140.457031 54.058594 C 140.457031 52.011719 138.796875 50.351562 136.746094 50.351562 M 136.746094 56.265625 C 135.523438 56.265625 134.535156 55.277344 134.535156 54.058594 C 134.535156 52.839844 135.523438 51.851562 136.746094 51.851562 C 137.964844 51.851562 138.953125 52.839844 138.953125 54.058594 C 138.953125 55.277344 137.964844 56.265625 136.746094 56.265625 " fill-opacity="1" fill-rule="nonzero"/><path fill="#eef9fd" d="M 136.746094 51.851562 C 135.523438 51.851562 134.535156 52.839844 134.535156 54.058594 C 134.535156 55.277344 135.523438 56.265625 136.746094 56.265625 C 137.964844 56.265625 138.953125 55.277344 138.953125 54.058594 C 138.953125 52.839844 137.964844 51.851562 136.746094 51.851562 " fill-opacity="1" fill-rule="nonzero"/><path fill="#9adee8" d="M 171.621094 97.125 C 168.671875 97.125 166.28125 99.515625 166.28125 102.460938 C 166.28125 103.023438 166.367188 103.566406 166.527344 104.074219 L 168.121094 103.703125 C 167.980469 103.316406 167.90625 102.894531 167.90625 102.460938 C 167.90625 100.410156 169.566406 98.75 171.621094 98.75 C 173.523438 98.75 175.09375 100.179688 175.308594 102.023438 L 176.898438 101.652344 C 176.511719 99.089844 174.296875 97.125 171.621094 97.125 " fill-opacity="1" fill-rule="nonzero"/><path fill="#9adee8" d="M 176.898438 101.652344 L 175.308594 102.023438 C 175.324219 102.167969 175.335938 102.3125 175.335938 102.460938 C 175.335938 104.507812 173.671875 106.167969 171.621094 106.167969 C 170.007812 106.167969 168.632812 105.140625 168.121094 103.703125 L 166.527344 104.074219 C 167.214844 106.230469 169.234375 107.792969 171.621094 107.792969 C 174.570312 107.792969 176.960938 105.40625 176.960938 102.460938 C 176.960938 102.183594 176.941406 101.917969 176.898438 101.652344 " fill-opacity="1" fill-rule="nonzero"/><path fill="#a6e1de" d="M 171.621094 98.75 C 169.566406 98.75 167.90625 100.410156 167.90625 102.460938 C 167.90625 102.894531 167.980469 103.316406 168.121094 103.703125 L 169.601562 103.359375 C 169.476562 103.082031 169.410156 102.777344 169.410156 102.460938 C 169.410156 101.242188 170.398438 100.253906 171.621094 100.253906 C 172.8125 100.253906 173.78125 101.191406 173.828125 102.371094 L 175.308594 102.023438 C 175.09375 100.179688 173.523438 98.75 171.621094 98.75 " fill-opacity="1" fill-rule="nonzero"/><path fill="#a6e1de" d="M 175.308594 102.023438 L 173.828125 102.371094 C 173.828125 102.402344 173.828125 102.429688 173.828125 102.460938 C 173.828125 103.679688 172.839844 104.667969 171.621094 104.667969 C 170.71875 104.667969 169.945312 104.128906 169.601562 103.359375 L 168.121094 103.703125 C 168.632812 105.140625 170.007812 106.167969 171.621094 106.167969 C 173.671875 106.167969 175.335938 104.507812 175.335938 102.460938 C 175.335938 102.3125 175.324219 102.167969 175.308594 102.023438 " fill-opacity="1" fill-rule="nonzero"/><path fill="#eef9fd" d="M 171.621094 100.253906 C 170.398438 100.253906 169.410156 101.242188 169.410156 102.460938 C 169.410156 102.777344 169.476562 103.082031 169.601562 103.359375 L 173.828125 102.371094 C 173.78125 101.191406 172.8125 100.253906 171.621094 100.253906 " fill-opacity="1" fill-rule="nonzero"/><path fill="#eef9fd" d="M 173.828125 102.371094 L 169.601562 103.359375 C 169.945312 104.128906 170.71875 104.667969 171.621094 104.667969 C 172.839844 104.667969 173.828125 103.679688 173.828125 102.460938 C 173.828125 102.429688 173.828125 102.402344 173.828125 102.371094 " fill-opacity="1" fill-rule="nonzero"/><path fill="#ffffff" d="M 85.839844 35.105469 L 136.714844 54.488281 L 210.902344 36.96875 L 170.917969 102.820312 L 241.296875 108.167969 L 222.074219 203.929688 L 151.164062 249.097656 L 216.207031 268.464844 L 162.84375 308.933594 L 100.976562 256.125 L 93.5625 186.738281 L 105.597656 133.351562 L 104.796875 133.167969 L 92.726562 186.691406 L 100.195312 256.539062 L 162.8125 309.988281 L 218 268.136719 L 153.128906 248.824219 L 222.8125 204.433594 L 242.285156 107.421875 L 172.320312 102.101562 L 212.625 35.714844 L 136.769531 53.632812 L 86.132812 34.335938 L 85.839844 35.105469 " fill-opacity="1" fill-rule="nonzero"/><path fill="#ffffff" d="M 136.410156 54.300781 L 171.285156 102.699219 L 171.953125 102.21875 L 137.074219 53.820312 " fill-opacity="1" fill-rule="nonzero"/><path fill="#ffffff" d="M 185.609375 155.855469 L 94.988281 187.292969 L 95.257812 188.070312 L 185.878906 156.632812 " fill-opacity="1" fill-rule="nonzero"/><path fill="#ffffff" d="M 222.035156 204.148438 L 216.695312 268.269531 L 217.515625 268.335938 L 222.855469 204.214844 " fill-opacity="1" fill-rule="nonzero"/><path fill="#ffffff" d="M 151.742188 249.894531 L 162.421875 308.484375 L 163.234375 308.335938 L 152.550781 249.746094 " fill-opacity="1" fill-rule="nonzero"/><path fill="#ffffff" d="M 93.765625 186.992188 L 151.84375 249.242188 L 152.449219 248.679688 L 94.367188 186.433594 " fill-opacity="1" fill-rule="nonzero"/><path fill="#ffffff" d="M 186.191406 156.855469 L 151.761719 248.816406 L 152.53125 249.105469 L 186.960938 157.144531 " fill-opacity="1" fill-rule="nonzero"/><path fill="#ffffff" d="M 222.773438 203.929688 L 186.070312 155.996094 L 185.417969 156.492188 L 222.117188 204.429688 " fill-opacity="1" fill-rule="nonzero"/><path fill="#ffffff" d="M 171.445312 102.085938 L 105.023438 132.886719 L 105.371094 133.632812 L 171.792969 102.832031 " fill-opacity="1" fill-rule="nonzero"/><path fill="#ffffff" d="M 241.523438 107.484375 L 186.304688 155.933594 L 186.847656 156.554688 L 242.0625 108.101562 " fill-opacity="1" fill-rule="nonzero"/><path fill="#ffffff" d="M 211.382812 36.5 L 241.414062 107.953125 L 242.171875 107.632812 L 212.144531 36.179688 " fill-opacity="1" fill-rule="nonzero"/><path fill="#ffffff" d="M 135.535156 54.375 L 105.617188 133.339844 L 106.386719 133.632812 L 136.304688 54.664062 " fill-opacity="1" fill-rule="nonzero"/><path fill="#ffffff" d="M 85.585938 34.800781 L 105.597656 133.570312 L 106.40625 133.40625 L 86.390625 34.636719 " fill-opacity="1" fill-rule="nonzero"/><path fill="#ffffff" d="M 186.6875 155.847656 L 106.113281 133.09375 L 105.890625 133.882812 L 186.464844 156.640625 " fill-opacity="1" fill-rule="nonzero"/><path fill="#ffffff" d="M 171.222656 102.5625 L 185.347656 156.347656 L 186.144531 156.136719 L 172.019531 102.355469 " fill-opacity="1" fill-rule="nonzero"/><path fill="#ffffff" d="M 152.09375 249.414062 L 101.429688 256.09375 L 101.539062 256.90625 L 152.199219 250.230469 " fill-opacity="1" fill-rule="nonzero"/></svg>