<svg xmlns="http://www.w3.org/2000/svg" xmlns:xlink="http://www.w3.org/1999/xlink" width="328" zoomAndPan="magnify" viewBox="0 0 246 324.749988" height="433" preserveAspectRatio="xMidYMid meet" version="1.0"><defs><clipPath id="f12caddf6b"><path d="M 0.648438 197 L 245.710938 197 L 245.710938 324.125 L 0.648438 324.125 Z M 0.648438 197 " clip-rule="nonzero"/></clipPath><clipPath id="448cc75ab2"><path d="M 102 227 L 144 227 L 144 324.125 L 102 324.125 Z M 102 227 " clip-rule="nonzero"/></clipPath><clipPath id="0c504232cd"><path d="M 62 0.375 L 186 0.375 L 186 122 L 62 122 Z M 62 0.375 " clip-rule="nonzero"/></clipPath></defs><path fill="#f0ac92" d="M 149.382812 210.902344 L 96.824219 210.902344 L 96.824219 160.023438 L 149.382812 160.023438 L 149.382812 210.902344 " fill-opacity="1" fill-rule="nonzero"/><path fill="#f8bfa7" d="M 176.988281 72.554688 C 165.382812 34.65625 131.226562 31.300781 123.105469 31.039062 C 114.980469 31.300781 80.824219 34.65625 69.21875 72.554688 C 69.21875 72.554688 68.457031 106.882812 75.128906 153.234375 C 75.800781 157.949219 79.3125 162.066406 82.855469 165.085938 C 93.832031 174.484375 108.949219 185.667969 123.105469 186.691406 C 137.273438 185.667969 152.375 174.484375 163.355469 165.085938 C 166.894531 162.066406 170.410156 157.949219 171.09375 153.234375 C 177.753906 106.882812 176.988281 72.554688 176.988281 72.554688 " fill-opacity="1" fill-rule="nonzero"/><path fill="#f8bfa7" d="M 180.472656 109.476562 C 175.1875 108.621094 169.933594 114.433594 168.730469 122.445312 C 167.539062 130.46875 170.851562 137.65625 176.148438 138.496094 C 181.433594 139.347656 186.699219 133.550781 187.890625 125.527344 C 189.082031 117.515625 185.769531 110.332031 180.472656 109.476562 " fill-opacity="1" fill-rule="nonzero"/><path fill="#f8bfa7" d="M 65.738281 109.476562 C 60.4375 110.332031 57.125 117.515625 58.316406 125.527344 C 59.507812 133.550781 64.777344 139.347656 70.058594 138.496094 C 75.355469 137.65625 78.671875 130.46875 77.480469 122.445312 C 76.289062 114.433594 71.035156 108.621094 65.738281 109.476562 " fill-opacity="1" fill-rule="nonzero"/><g clip-path="url(#f12caddf6b)"><path fill="#f0ac92" d="M 238.890625 251.121094 C 235.609375 229.777344 217.542969 223.214844 217.542969 223.214844 L 149.382812 197.617188 L 96.824219 197.617188 L 28.664062 223.214844 C 28.664062 223.214844 10.601562 229.777344 7.316406 251.121094 L 0.734375 324.140625 L 245.457031 324.140625 L 238.890625 251.121094 " fill-opacity="1" fill-rule="nonzero"/><path fill="#d1f0fc" d="M 238.890625 251.121094 C 235.609375 229.777344 217.542969 223.214844 217.542969 223.214844 L 149.382812 197.617188 L 123.105469 205.550781 L 96.824219 197.617188 L 28.664062 223.214844 C 28.664062 223.214844 10.601562 229.777344 7.316406 251.121094 L 0.734375 324.140625 L 245.457031 324.140625 L 238.890625 251.121094 " fill-opacity="1" fill-rule="nonzero"/></g><path fill="#51558f" d="M 129.992188 227.578125 L 135.992188 205.992188 L 110.21875 205.992188 L 116.21875 227.578125 L 129.992188 227.578125 " fill-opacity="1" fill-rule="nonzero"/><g clip-path="url(#448cc75ab2)"><path fill="#51558f" d="M 129.992188 227.578125 L 116.21875 227.578125 L 102.535156 324.140625 L 143.671875 324.140625 L 129.992188 227.578125 " fill-opacity="1" fill-rule="nonzero"/></g><path fill="#9bdff8" d="M 96.167969 185.699219 L 123.105469 205.550781 L 101.238281 228.601562 L 73.019531 206.554688 L 96.167969 185.699219 " fill-opacity="1" fill-rule="nonzero"/><path fill="#9bdff8" d="M 150.023438 185.699219 L 123.105469 205.550781 L 144.96875 228.601562 L 173.1875 206.554688 L 150.023438 185.699219 " fill-opacity="1" fill-rule="nonzero"/><g clip-path="url(#0c504232cd)"><path fill="#51558f" d="M 182.410156 59.832031 L 180.472656 109.476562 C 177.980469 108.515625 175.675781 110.46875 175.675781 110.46875 L 174.730469 121.269531 L 169.234375 121.269531 L 164.363281 84.820312 C 103.910156 73.929688 90.535156 52.25 90.535156 52.25 C 91.632812 57.9375 88.0625 71.351562 88.0625 71.351562 L 77.722656 102.246094 L 76.257812 121.269531 L 72.515625 121.269531 L 71.953125 111.71875 C 68.300781 108.683594 65.738281 109.476562 65.738281 109.476562 L 62.820312 67.015625 C 63.921875 51.882812 77.722656 35.207031 77.722656 35.207031 C 77.722656 35.207031 77.097656 26.066406 100 21.414062 C 100 21.414062 152.574219 17.140625 149.382812 0.359375 C 149.382812 0.359375 162.222656 14.089844 159.171875 24.007812 C 159.171875 24.007812 167.890625 26.296875 168.484375 14.089844 C 168.484375 14.089844 195.054688 31.039062 182.410156 59.832031 " fill-opacity="1" fill-rule="nonzero"/></g></svg>