<svg xmlns="http://www.w3.org/2000/svg" xmlns:xlink="http://www.w3.org/1999/xlink" width="1920" zoomAndPan="magnify" viewBox="0 0 1440 809.999993" height="1080" preserveAspectRatio="xMidYMid meet" version="1.0"><defs><g/><clipPath id="c720888ee2"><path d="M 102 79 L 811.167969 79 L 811.167969 689 L 102 689 Z M 102 79 " clip-rule="nonzero"/></clipPath><clipPath id="1a5f478e24"><path d="M 973.4375 172.492188 L 1358.597656 172.492188 L 1358.597656 557.652344 L 973.4375 557.652344 Z M 973.4375 172.492188 " clip-rule="nonzero"/></clipPath><clipPath id="4fcddcc369"><path d="M 706 120.59375 L 1035 120.59375 L 1035 239 L 706 239 Z M 706 120.59375 " clip-rule="nonzero"/></clipPath></defs><g clip-path="url(#c720888ee2)"><path fill="#c7ede6" d="M 781.058594 443.261719 C 783.65625 437.925781 785.949219 432.320312 787.941406 426.445312 C 810.734375 359.183594 776.269531 278.628906 703.683594 259.1875 C 695.835938 160.652344 626.582031 93.0625 548.378906 81.53125 C 458.863281 68.339844 376.847656 125.195312 349.5625 215.5625 C 316.671875 203.914062 284.621094 205.332031 254.421875 222.972656 C 240.722656 229.308594 228.191406 238.660156 216.941406 250.957031 C 200.425781 269.007812 189.699219 291.804688 185.328125 315.835938 C 178.851562 316.851562 172.488281 317.878906 166.492188 320.023438 C 131.519531 332.566406 109.449219 358.378906 103.402344 397.25 C 99.628906 421.457031 107.234375 445.605469 111.476562 455.367188 C 128.226562 493.917969 167.074219 515.785156 206.535156 509.996094 C 208.5 509.710938 211.351562 510.597656 213.046875 512.011719 C 215.132812 573.640625 245.0625 628.140625 289.957031 659.269531 C 361.992188 709.226562 454.671875 693.832031 513.136719 625.332031 C 538.1875 650.953125 568.011719 663.398438 603.035156 658.878906 C 637.855469 654.386719 664.898438 635.171875 684.632812 603.9375 C 693.742188 606.386719 702.390625 609.925781 711.328125 610.898438 C 746.3125 614.722656 774.730469 600.808594 795.574219 569.355469 C 803.554688 557.320312 811.097656 541.710938 811.097656 514.359375 C 811.097656 486.167969 799.902344 460.484375 781.058594 443.261719 Z M 781.058594 443.261719 " fill-opacity="1" fill-rule="nonzero"/></g><path fill="#fdfcef" d="M 624.6875 524.761719 C 624.6875 524.761719 725.894531 524.761719 726.511719 524.761719 C 749.886719 524.761719 768.828125 505.816406 768.828125 482.449219 C 768.828125 462.058594 754.40625 445.050781 735.203125 441.035156 C 735.421875 439.253906 735.578125 437.445312 735.578125 435.605469 C 735.578125 411.398438 715.960938 391.785156 691.75 391.785156 C 677.460938 391.785156 664.804688 398.660156 656.808594 409.234375 C 654.765625 382.292969 630.695312 361.515625 602.53125 364.957031 C 581.9375 367.476562 564.910156 383.390625 561.121094 403.777344 C 559.902344 410.3125 560.035156 416.667969 561.242188 422.621094 C 555.722656 416.675781 547.863281 412.929688 539.109375 412.929688 C 523.089844 412.929688 510.015625 425.402344 508.984375 441.15625 C 501.707031 439.550781 493.796875 439.652344 485.460938 442.78125 C 469.535156 448.761719 458.191406 463.753906 457.523438 480.753906 C 456.585938 504.894531 475.875 524.761719 499.804688 524.761719 C 501.621094 524.761719 508.007812 524.761719 509.488281 524.761719 L 597.359375 524.761719 " fill-opacity="1" fill-rule="nonzero"/><path fill="#472b29" d="M 726.511719 529.097656 L 624.6875 529.097656 C 622.289062 529.097656 620.34375 527.152344 620.34375 524.753906 C 620.34375 522.355469 622.289062 520.410156 624.6875 520.410156 L 726.511719 520.410156 C 747.445312 520.410156 764.480469 503.375 764.480469 482.449219 C 764.480469 464.5625 751.796875 448.945312 734.308594 445.292969 C 732.101562 444.832031 730.605469 442.757812 730.882812 440.503906 C 731.074219 438.890625 731.222656 437.273438 731.222656 435.605469 C 731.222656 413.832031 713.515625 396.128906 691.742188 396.128906 C 679.285156 396.128906 667.8125 401.855469 660.265625 411.859375 C 659.171875 413.304688 657.292969 413.910156 655.574219 413.40625 C 653.835938 412.894531 652.601562 411.375 652.460938 409.574219 C 651.558594 397.660156 645.722656 386.476562 636.449219 378.871094 C 627.085938 371.195312 615.238281 367.796875 603.042969 369.277344 C 584.3125 371.570312 568.8125 386.09375 565.371094 404.578125 C 564.300781 410.347656 564.34375 416.136719 565.492188 421.769531 C 565.882812 423.679688 564.953125 425.609375 563.214844 426.496094 C 561.511719 427.410156 559.371094 427.027344 558.042969 425.59375 C 553.078125 420.246094 546.351562 417.300781 539.09375 417.300781 C 525.515625 417.300781 514.191406 427.914062 513.304688 441.453125 C 513.214844 442.722656 512.589844 443.886719 511.582031 444.640625 C 510.566406 445.414062 509.226562 445.683594 508.035156 445.414062 C 500.726562 443.800781 493.847656 444.292969 486.972656 446.859375 C 472.535156 452.289062 462.433594 465.976562 461.851562 480.933594 C 461.445312 491.371094 465.199219 501.261719 472.421875 508.773438 C 479.644531 516.28125 489.363281 520.425781 499.785156 520.425781 L 597.351562 520.425781 C 599.75 520.425781 601.695312 522.371094 601.695312 524.773438 C 601.695312 527.171875 599.75 529.117188 597.351562 529.117188 L 499.804688 529.117188 C 486.992188 529.117188 475.046875 524.03125 466.171875 514.804688 C 457.296875 505.574219 452.671875 493.421875 453.175781 480.597656 C 453.898438 462.199219 466.257812 445.363281 483.929688 438.734375 C 490.859375 436.144531 498.023438 435.273438 505.289062 436.144531 C 508.558594 420.378906 522.578125 408.609375 539.109375 408.609375 C 545.03125 408.609375 550.820312 410.15625 555.921875 413 C 555.914062 409.679688 556.226562 406.332031 556.84375 403.003906 C 560.972656 380.816406 579.539062 363.410156 602 360.664062 C 616.527344 358.863281 630.746094 362.957031 641.96875 372.152344 C 650.660156 379.269531 656.824219 389.019531 659.613281 399.773438 C 668.367188 391.863281 679.6875 387.457031 691.75 387.457031 C 718.316406 387.457031 739.925781 409.0625 739.925781 435.621094 C 739.925781 436.34375 739.90625 437.054688 739.863281 437.757812 C 759.378906 443.589844 773.171875 461.804688 773.171875 482.472656 C 773.171875 508.171875 752.242188 529.097656 726.511719 529.097656 Z M 726.511719 529.097656 " fill-opacity="1" fill-rule="nonzero"/><path fill="#fdfcef" d="M 600.15625 431.554688 C 584.503906 430.527344 571.03125 441.339844 570.066406 455.695312 C 569.941406 457.480469 570.019531 459.234375 570.28125 460.945312 C 567.265625 457.539062 562.789062 455.21875 557.660156 454.890625 C 548.273438 454.273438 540.164062 460.476562 538.980469 468.90625 C 537.269531 468.4375 535.496094 468.125 533.644531 468.003906 C 519.945312 467.109375 508.15625 476.5625 507.3125 489.128906 " fill-opacity="1" fill-rule="nonzero"/><path fill="#472b29" d="M 507.3125 491.292969 C 507.261719 491.292969 507.21875 491.292969 507.167969 491.285156 C 505.964844 491.207031 505.0625 490.171875 505.148438 488.972656 C 506.070312 475.234375 518.746094 464.777344 533.792969 465.832031 C 534.957031 465.898438 536.136719 466.046875 537.320312 466.292969 C 539.703125 457.90625 548.097656 452.074219 557.800781 452.714844 C 561.476562 452.941406 564.917969 454.089844 567.855469 456.011719 C 567.867188 455.851562 567.875 455.707031 567.890625 455.550781 C 568.945312 440.027344 583.261719 428.148438 600.296875 429.382812 C 601.496094 429.460938 602.402344 430.492188 602.3125 431.691406 C 602.246094 432.882812 601.390625 433.910156 600 433.710938 C 585.625 432.980469 573.105469 442.6875 572.21875 455.835938 C 572.117188 457.410156 572.1875 459.015625 572.421875 460.617188 C 572.566406 461.5625 572.0625 462.5 571.1875 462.910156 C 570.324219 463.308594 569.273438 463.09375 568.640625 462.378906 C 565.847656 459.226562 561.894531 457.332031 557.511719 457.042969 C 549.230469 456.644531 542.144531 461.839844 541.128906 469.195312 C 541.03125 469.8125 540.683594 470.367188 540.171875 470.714844 C 539.660156 471.0625 539.007812 471.15625 538.398438 470.992188 C 536.753906 470.539062 535.105469 470.261719 533.503906 470.148438 C 520.917969 469.453125 510.253906 477.910156 509.46875 489.253906 C 509.398438 490.40625 508.453125 491.292969 507.3125 491.292969 Z M 507.3125 491.292969 " fill-opacity="1" fill-rule="nonzero"/><path fill="#fdfcef" d="M 743.644531 445.996094 C 728.9375 439.0625 711.925781 443.972656 705.648438 456.957031 C 704.867188 458.574219 704.292969 460.234375 703.910156 461.917969 " fill-opacity="1" fill-rule="nonzero"/><path fill="#472b29" d="M 703.902344 464.101562 C 703.738281 464.101562 703.582031 464.082031 703.40625 464.039062 C 702.242188 463.78125 701.511719 462.605469 701.78125 461.433594 C 702.214844 459.539062 702.859375 457.714844 703.6875 456.011719 C 710.457031 441.972656 728.789062 436.59375 744.558594 444.023438 C 745.644531 444.546875 746.113281 445.832031 745.601562 446.917969 C 745.078125 448.003906 743.765625 448.457031 742.707031 447.960938 C 729.09375 441.539062 713.324219 445.996094 707.597656 457.90625 C 706.910156 459.3125 706.378906 460.832031 706.007812 462.421875 C 705.789062 463.421875 704.894531 464.101562 703.902344 464.101562 Z M 703.902344 464.101562 " fill-opacity="1" fill-rule="nonzero"/><path fill="#ffffff" d="M 172.175781 374.351562 L 85.347656 374.351562 C 82.945312 374.351562 81 372.402344 81 370.003906 C 81 367.605469 82.945312 365.660156 85.347656 365.660156 L 172.175781 365.660156 C 174.574219 365.660156 176.523438 367.605469 176.523438 370.003906 C 176.523438 372.402344 174.582031 374.351562 172.175781 374.351562 Z M 197.113281 374.351562 L 184.605469 374.351562 C 182.207031 374.351562 180.257812 372.402344 180.257812 370.003906 C 180.257812 367.605469 182.207031 365.660156 184.605469 365.660156 L 197.113281 365.660156 C 199.511719 365.660156 201.460938 367.605469 201.460938 370.003906 C 201.460938 372.402344 199.523438 374.351562 197.113281 374.351562 Z M 232.222656 374.351562 L 210.1875 374.351562 C 207.789062 374.351562 205.839844 372.402344 205.839844 370.003906 C 205.839844 367.605469 207.789062 365.660156 210.1875 365.660156 L 232.222656 365.660156 C 234.621094 365.660156 236.570312 367.605469 236.570312 370.003906 C 236.570312 372.402344 234.621094 374.351562 232.222656 374.351562 Z M 232.222656 390.488281 L 148.976562 390.488281 C 146.574219 390.488281 144.628906 388.542969 144.628906 386.144531 C 144.628906 383.746094 146.574219 381.800781 148.976562 381.800781 L 232.214844 381.800781 C 234.613281 381.800781 236.5625 383.746094 236.5625 386.144531 C 236.5625 388.542969 234.621094 390.488281 232.222656 390.488281 Z M 133.988281 390.488281 L 128.964844 390.488281 C 126.566406 390.488281 124.617188 388.542969 124.617188 386.144531 C 124.617188 383.746094 126.566406 381.800781 128.964844 381.800781 L 133.988281 381.800781 C 136.386719 381.800781 138.335938 383.746094 138.335938 386.144531 C 138.335938 388.542969 136.386719 390.488281 133.988281 390.488281 Z M 113.414062 390.488281 L 100.808594 390.488281 C 98.410156 390.488281 96.464844 388.542969 96.464844 386.144531 C 96.464844 383.746094 98.410156 381.800781 100.808594 381.800781 L 113.414062 381.800781 C 115.8125 381.800781 117.761719 383.746094 117.761719 386.144531 C 117.761719 388.542969 115.8125 390.488281 113.414062 390.488281 Z M 192.5 358.203125 L 148.976562 358.203125 C 146.574219 358.203125 144.628906 356.257812 144.628906 353.859375 C 144.628906 351.460938 146.574219 349.511719 148.976562 349.511719 L 192.5 349.511719 C 194.898438 349.511719 196.84375 351.460938 196.84375 353.859375 C 196.84375 356.257812 194.90625 358.203125 192.5 358.203125 Z M 192.5 342.074219 L 181.605469 342.074219 C 179.207031 342.074219 177.261719 340.125 177.261719 337.726562 C 177.261719 335.328125 179.207031 333.382812 181.605469 333.382812 L 192.5 333.382812 C 194.898438 333.382812 196.84375 335.328125 196.84375 337.726562 C 196.84375 340.125 194.90625 342.074219 192.5 342.074219 Z M 164.195312 406.636719 L 148.976562 406.636719 C 146.574219 406.636719 144.628906 404.691406 144.628906 402.292969 C 144.628906 399.894531 146.574219 397.945312 148.976562 397.945312 L 164.195312 397.945312 C 166.59375 397.945312 168.542969 399.894531 168.542969 402.292969 C 168.542969 404.691406 166.601562 406.636719 164.195312 406.636719 Z M 632.527344 146.921875 L 545.699219 146.921875 C 543.300781 146.921875 541.355469 144.972656 541.355469 142.574219 C 541.355469 140.175781 543.300781 138.230469 545.699219 138.230469 L 632.527344 138.230469 C 634.929688 138.230469 636.875 140.175781 636.875 142.574219 C 636.875 144.972656 634.9375 146.921875 632.527344 146.921875 Z M 657.46875 146.921875 L 644.960938 146.921875 C 642.558594 146.921875 640.613281 144.972656 640.613281 142.574219 C 640.613281 140.175781 642.558594 138.230469 644.960938 138.230469 L 657.46875 138.230469 C 659.867188 138.230469 661.8125 140.175781 661.8125 142.574219 C 661.8125 144.972656 659.875 146.921875 657.46875 146.921875 Z M 692.566406 146.921875 L 670.53125 146.921875 C 668.132812 146.921875 666.1875 144.972656 666.1875 142.574219 C 666.1875 140.175781 668.132812 138.230469 670.53125 138.230469 L 692.566406 138.230469 C 694.96875 138.230469 696.914062 140.175781 696.914062 142.574219 C 696.914062 144.972656 694.976562 146.921875 692.566406 146.921875 Z M 675.035156 114.632812 L 591.796875 114.632812 C 589.398438 114.632812 587.449219 112.6875 587.449219 110.289062 C 587.449219 107.890625 589.398438 105.945312 591.796875 105.945312 L 675.035156 105.945312 C 677.433594 105.945312 679.382812 107.890625 679.382812 110.289062 C 679.382812 112.6875 677.433594 114.632812 675.035156 114.632812 Z M 576.800781 114.632812 L 571.777344 114.632812 C 569.378906 114.632812 567.429688 112.6875 567.429688 110.289062 C 567.429688 107.890625 569.378906 105.945312 571.777344 105.945312 L 576.800781 105.945312 C 579.199219 105.945312 581.148438 107.890625 581.148438 110.289062 C 581.148438 112.6875 579.199219 114.632812 576.800781 114.632812 Z M 556.226562 114.632812 L 543.621094 114.632812 C 541.222656 114.632812 539.277344 112.6875 539.277344 110.289062 C 539.277344 107.890625 541.222656 105.945312 543.621094 105.945312 L 556.226562 105.945312 C 558.625 105.945312 560.574219 107.890625 560.574219 110.289062 C 560.574219 112.6875 558.625 114.632812 556.226562 114.632812 Z M 652.84375 130.773438 L 609.320312 130.773438 C 606.921875 130.773438 604.972656 128.828125 604.972656 126.429688 C 604.972656 124.03125 606.921875 122.082031 609.320312 122.082031 L 652.84375 122.082031 C 655.242188 122.082031 657.191406 124.03125 657.191406 126.429688 C 657.191406 128.828125 655.25 130.773438 652.84375 130.773438 Z M 652.84375 130.773438 " fill-opacity="1" fill-rule="nonzero"/><path fill="#ffffff" d="M 652.84375 114.632812 L 641.960938 114.632812 C 639.5625 114.632812 637.613281 112.6875 637.613281 110.289062 C 637.613281 107.890625 639.5625 105.945312 641.960938 105.945312 L 652.84375 105.945312 C 655.242188 105.945312 657.191406 107.890625 657.191406 110.289062 C 657.191406 112.6875 655.25 114.632812 652.84375 114.632812 Z M 596.722656 130.773438 L 581.503906 130.773438 C 579.105469 130.773438 577.15625 128.828125 577.15625 126.429688 C 577.15625 124.03125 579.105469 122.082031 581.503906 122.082031 L 596.722656 122.082031 C 599.125 122.082031 601.070312 124.03125 601.070312 126.429688 C 601.070312 128.828125 599.125 130.773438 596.722656 130.773438 Z M 596.722656 130.773438 " fill-opacity="1" fill-rule="nonzero"/><path fill="#c0e5e4" d="M 583.894531 524.761719 L 293.558594 524.761719 C 271.242188 524.761719 252.988281 506.511719 252.988281 484.203125 L 252.988281 312.480469 C 252.988281 290.171875 271.242188 271.921875 293.558594 271.921875 L 583.894531 271.921875 C 606.207031 271.921875 624.460938 290.171875 624.460938 312.480469 L 624.460938 484.203125 C 624.460938 506.511719 606.207031 524.761719 583.894531 524.761719 Z M 583.894531 524.761719 " fill-opacity="1" fill-rule="nonzero"/><path fill="#472b29" d="M 583.894531 530.847656 L 293.566406 530.847656 C 267.84375 530.847656 246.921875 509.925781 246.921875 484.210938 L 246.921875 312.480469 C 246.921875 286.765625 267.84375 265.847656 293.566406 265.847656 L 583.894531 265.847656 C 609.617188 265.847656 630.546875 286.765625 630.546875 312.480469 L 630.546875 484.210938 C 630.546875 509.917969 609.617188 530.847656 583.894531 530.847656 Z M 293.558594 278.011719 C 274.546875 278.011719 259.082031 293.472656 259.082031 312.480469 L 259.082031 484.210938 C 259.082031 503.21875 274.546875 518.679688 293.558594 518.679688 L 583.886719 518.679688 C 602.90625 518.679688 618.367188 503.21875 618.367188 484.210938 L 618.367188 312.480469 C 618.367188 293.472656 602.90625 278.011719 583.886719 278.011719 Z M 293.558594 278.011719 " fill-opacity="1" fill-rule="nonzero"/><path fill="#a8dbdb" d="M 271.539062 509.042969 C 278.875 516.941406 283.96875 518.480469 295.175781 518.480469 L 584.304688 518.480469 C 595.507812 518.480469 598.863281 518.574219 606.199219 510.683594 L 438.871094 358.367188 Z M 271.539062 509.042969 " fill-opacity="1" fill-rule="nonzero"/><path fill="#e0fcf8" d="M 606.199219 286.3125 C 598.863281 279.34375 593.769531 277.988281 582.566406 277.988281 L 293.433594 277.988281 C 282.230469 277.988281 278.875 277.898438 271.539062 284.871094 L 442.859375 419.273438 Z M 606.199219 286.3125 " fill-opacity="1" fill-rule="nonzero"/><path fill="#472b29" d="M 443.605469 426.503906 C 442.902344 426.503906 442.199219 426.277344 441.605469 425.816406 L 262.289062 286.261719 C 260.875 285.15625 260.621094 283.105469 261.726562 281.6875 C 262.847656 280.265625 264.878906 280.019531 266.296875 281.125 L 443.546875 419.074219 L 611.085938 281.183594 C 612.457031 280.039062 614.535156 280.246094 615.664062 281.628906 C 616.8125 283.019531 616.613281 285.070312 615.222656 286.207031 L 445.675781 425.757812 C 445.074219 426.253906 444.34375 426.503906 443.605469 426.503906 Z M 269.175781 517.160156 C 268.28125 517.160156 267.394531 516.792969 266.75 516.070312 C 265.542969 514.734375 265.664062 512.664062 267 511.476562 L 378.117188 412.21875 C 379.457031 411.015625 381.523438 411.128906 382.714844 412.46875 C 383.925781 413.808594 383.800781 415.875 382.464844 417.066406 L 271.347656 516.332031 C 270.730469 516.890625 269.949219 517.160156 269.175781 517.160156 Z M 608.277344 517.160156 C 607.503906 517.160156 606.722656 516.890625 606.105469 516.324219 L 494.988281 417.074219 C 493.648438 415.875 493.527344 413.816406 494.734375 412.476562 C 495.933594 411.140625 498.003906 411.027344 499.335938 412.226562 L 610.449219 511.484375 C 611.789062 512.683594 611.910156 514.742188 610.703125 516.082031 C 610.066406 516.792969 609.171875 517.160156 608.277344 517.160156 Z M 608.277344 517.160156 " fill-opacity="1" fill-rule="nonzero"/><path fill="#e1e0d8" d="M 510.398438 231.40625 C 510.382812 256.894531 526.117188 281.003906 553.175781 296.933594 C 553.175781 310.699219 549.160156 325.941406 544.144531 335.640625 C 542.363281 339.082031 545.152344 343.089844 549.003906 342.671875 C 573.96875 339.933594 597.628906 327.601562 610.199219 315.28125 L 624.453125 315.28125 C 687.449219 315.28125 738.507812 277.726562 738.507812 231.40625 C 738.507812 185.082031 687.4375 147.527344 624.453125 147.527344 C 561.46875 147.527344 510.398438 185.082031 510.398438 231.40625 " fill-opacity="1" fill-rule="nonzero"/><path fill="#472b29" d="M 548.472656 347.042969 C 545.4375 347.042969 542.585938 345.566406 540.859375 343.039062 C 538.945312 340.25 538.726562 336.648438 540.285156 333.644531 C 544.292969 325.898438 548.332031 312.542969 548.785156 299.359375 C 521.570312 282.550781 506.035156 257.894531 506.0625 231.394531 C 506.0625 182.761719 559.171875 143.191406 624.460938 143.191406 C 689.75 143.191406 742.863281 182.769531 742.863281 231.40625 C 742.863281 280.054688 689.75 319.625 624.460938 319.625 L 611.945312 319.625 C 599.21875 331.402344 575.460938 344.140625 549.480469 346.992188 C 549.140625 347.027344 548.804688 347.042969 548.472656 347.042969 Z M 624.460938 151.875 C 563.972656 151.875 514.753906 187.542969 514.753906 231.394531 C 514.753906 231.394531 514.753906 231.394531 514.753906 231.40625 C 514.726562 255.453125 529.539062 277.960938 555.382812 293.179688 C 556.703125 293.960938 557.523438 295.386719 557.523438 296.925781 C 557.523438 310.480469 553.785156 326.457031 548.011719 337.632812 L 549.003906 342.671875 L 548.523438 338.351562 C 573.351562 335.632812 595.863281 323.238281 607.15625 312.167969 C 607.964844 311.378906 609.058594 310.925781 610.199219 310.925781 L 624.460938 310.925781 C 684.953125 310.925781 734.171875 275.25 734.171875 231.394531 C 734.171875 187.542969 684.953125 151.875 624.460938 151.875 Z M 510.398438 231.40625 L 510.488281 231.40625 Z M 510.398438 231.40625 " fill-opacity="1" fill-rule="nonzero"/><path fill="#472b29" d="M 677.320312 200.578125 L 645.914062 200.578125 C 644.714844 200.578125 643.742188 199.605469 643.742188 198.40625 C 643.742188 197.207031 644.714844 196.234375 645.914062 196.234375 L 677.320312 196.234375 C 678.519531 196.234375 679.496094 197.207031 679.496094 198.40625 C 679.496094 199.605469 678.511719 200.578125 677.320312 200.578125 Z M 631.957031 200.578125 L 565.648438 200.578125 C 564.449219 200.578125 563.476562 199.605469 563.476562 198.40625 C 563.476562 197.207031 564.449219 196.234375 565.648438 196.234375 L 631.957031 196.234375 C 633.15625 196.234375 634.128906 197.207031 634.128906 198.40625 C 634.128906 199.605469 633.15625 200.578125 631.957031 200.578125 Z M 691.273438 221.503906 L 604.035156 221.503906 C 602.835938 221.503906 601.863281 220.53125 601.863281 219.332031 C 601.863281 218.132812 602.835938 217.160156 604.035156 217.160156 L 691.273438 217.160156 C 692.472656 217.160156 693.445312 218.132812 693.445312 219.332031 C 693.445312 220.53125 692.472656 221.503906 691.273438 221.503906 Z M 590.074219 221.503906 L 548.203125 221.503906 C 547.003906 221.503906 546.03125 220.53125 546.03125 219.332031 C 546.03125 218.132812 547.003906 217.160156 548.203125 217.160156 L 590.074219 217.160156 C 591.273438 217.160156 592.246094 218.132812 592.246094 219.332031 C 592.246094 220.53125 591.273438 221.503906 590.074219 221.503906 Z M 656.371094 242.441406 L 548.203125 242.441406 C 547.003906 242.441406 546.03125 241.46875 546.03125 240.269531 C 546.03125 239.070312 547.003906 238.097656 548.203125 238.097656 L 656.371094 238.097656 C 657.570312 238.097656 658.546875 239.070312 658.546875 240.269531 C 658.546875 241.46875 657.570312 242.441406 656.371094 242.441406 Z M 627.949219 266.863281 L 565.648438 266.863281 C 564.449219 266.863281 563.476562 265.890625 563.476562 264.691406 C 563.476562 263.492188 564.449219 262.515625 565.648438 262.515625 L 627.949219 262.515625 C 629.148438 262.515625 630.121094 263.492188 630.121094 264.691406 C 630.121094 265.890625 629.148438 266.863281 627.949219 266.863281 Z M 627.949219 266.863281 " fill-opacity="1" fill-rule="nonzero"/><path fill="#f1bc19" d="M 687.457031 246.761719 C 686.03125 246.761719 684.609375 246.828125 683.191406 246.96875 C 681.773438 247.105469 680.363281 247.316406 678.964844 247.589844 C 677.566406 247.867188 676.183594 248.214844 674.820312 248.625 C 673.457031 249.039062 672.117188 249.519531 670.796875 250.0625 C 669.480469 250.609375 668.195312 251.214844 666.9375 251.886719 C 665.679688 252.558594 664.457031 253.289062 663.273438 254.082031 C 662.085938 254.871094 660.941406 255.71875 659.839844 256.625 C 658.738281 257.527344 657.683594 258.484375 656.675781 259.492188 C 655.664062 260.496094 654.707031 261.550781 653.804688 262.652344 C 652.898438 263.753906 652.050781 264.898438 651.257812 266.082031 C 650.464844 267.269531 649.734375 268.488281 649.0625 269.746094 C 648.390625 271.003906 647.78125 272.289062 647.234375 273.605469 C 646.6875 274.921875 646.210938 276.261719 645.796875 277.625 C 645.382812 278.992188 645.035156 280.371094 644.757812 281.769531 C 644.480469 283.167969 644.269531 284.574219 644.128906 285.992188 C 643.992188 287.410156 643.921875 288.832031 643.921875 290.257812 C 643.921875 291.683594 643.992188 293.105469 644.128906 294.523438 C 644.269531 295.941406 644.480469 297.351562 644.757812 298.75 C 645.035156 300.144531 645.382812 301.527344 645.796875 302.890625 C 646.210938 304.253906 646.6875 305.59375 647.234375 306.910156 C 647.78125 308.226562 648.390625 309.515625 649.0625 310.769531 C 649.734375 312.027344 650.464844 313.25 651.257812 314.433594 C 652.050781 315.617188 652.898438 316.761719 653.804688 317.863281 C 654.710938 318.964844 655.664062 320.019531 656.675781 321.027344 C 657.683594 322.035156 658.738281 322.988281 659.839844 323.894531 C 660.941406 324.796875 662.085938 325.644531 663.273438 326.4375 C 664.457031 327.226562 665.679688 327.957031 666.9375 328.628906 C 668.195312 329.300781 669.480469 329.910156 670.796875 330.453125 C 672.117188 331 673.457031 331.476562 674.820312 331.890625 C 676.183594 332.304688 677.566406 332.648438 678.964844 332.925781 C 680.363281 333.203125 681.773438 333.410156 683.191406 333.550781 C 684.609375 333.6875 686.03125 333.757812 687.457031 333.757812 C 688.882812 333.757812 690.304688 333.6875 691.722656 333.550781 C 693.140625 333.410156 694.550781 333.203125 695.949219 332.925781 C 697.347656 332.648438 698.726562 332.304688 700.09375 331.890625 C 701.457031 331.476562 702.796875 331 704.113281 330.453125 C 705.433594 329.910156 706.71875 329.300781 707.976562 328.628906 C 709.234375 327.957031 710.457031 327.226562 711.640625 326.4375 C 712.828125 325.644531 713.972656 324.796875 715.074219 323.894531 C 716.175781 322.988281 717.230469 322.035156 718.238281 321.027344 C 719.246094 320.019531 720.203125 318.964844 721.109375 317.863281 C 722.011719 316.761719 722.863281 315.617188 723.652344 314.433594 C 724.445312 313.25 725.179688 312.027344 725.851562 310.769531 C 726.523438 309.515625 727.132812 308.226562 727.679688 306.910156 C 728.222656 305.59375 728.703125 304.253906 729.117188 302.890625 C 729.53125 301.527344 729.878906 300.144531 730.15625 298.75 C 730.433594 297.351562 730.644531 295.941406 730.78125 294.523438 C 730.921875 293.105469 730.992188 291.683594 730.992188 290.257812 C 730.992188 288.832031 730.921875 287.410156 730.78125 285.992188 C 730.644531 284.574219 730.433594 283.167969 730.15625 281.769531 C 729.878906 280.371094 729.53125 278.992188 729.117188 277.625 C 728.703125 276.261719 728.222656 274.921875 727.679688 273.605469 C 727.132812 272.289062 726.523438 271.003906 725.851562 269.746094 C 725.179688 268.488281 724.445312 267.269531 723.652344 266.082031 C 722.863281 264.898438 722.011719 263.753906 721.109375 262.652344 C 720.203125 261.550781 719.246094 260.496094 718.238281 259.492188 C 717.230469 258.484375 716.175781 257.527344 715.074219 256.625 C 713.972656 255.71875 712.828125 254.871094 711.640625 254.082031 C 710.457031 253.289062 709.234375 252.558594 707.976562 251.886719 C 706.71875 251.214844 705.433594 250.609375 704.113281 250.0625 C 702.796875 249.519531 701.457031 249.039062 700.09375 248.628906 C 698.726562 248.214844 697.347656 247.867188 695.949219 247.589844 C 694.550781 247.316406 693.140625 247.105469 691.722656 246.96875 C 690.304688 246.828125 688.882812 246.761719 687.457031 246.761719 Z M 687.457031 246.761719 " fill-opacity="1" fill-rule="nonzero"/><path fill="#472b29" d="M 687.464844 338.109375 C 661.074219 338.109375 639.605469 316.644531 639.605469 290.257812 C 639.605469 263.882812 661.074219 242.414062 687.464844 242.414062 C 713.847656 242.414062 735.316406 263.882812 735.316406 290.257812 C 735.308594 316.644531 713.847656 338.109375 687.464844 338.109375 Z M 687.464844 251.105469 C 665.875 251.105469 648.296875 268.671875 648.296875 290.257812 C 648.296875 311.847656 665.863281 329.417969 687.464844 329.417969 C 709.066406 329.417969 726.625 311.855469 726.625 290.257812 C 726.625 268.660156 709.058594 251.105469 687.464844 251.105469 Z M 687.464844 251.105469 " fill-opacity="1" fill-rule="nonzero"/><path fill="#472b29" d="M 698.589844 279.726562 L 696.949219 293.429688 C 696.878906 293.933594 696.828125 294.421875 696.800781 294.882812 C 696.773438 295.34375 696.757812 295.777344 696.757812 296.175781 C 696.757812 297.480469 697.296875 298.132812 698.375 298.132812 C 699.886719 298.132812 701.261719 297.0625 702.503906 294.925781 C 703.71875 292.824219 704.328125 290.414062 704.328125 287.722656 C 704.328125 283.4375 702.832031 279.933594 699.835938 277.203125 C 696.863281 274.441406 693.054688 273.050781 688.421875 273.050781 C 683.578125 273.050781 679.511719 274.703125 676.199219 278.011719 C 672.914062 281.296875 671.261719 285.375 671.261719 290.234375 C 671.261719 292.910156 671.855469 295.542969 673.035156 298.113281 C 674.234375 300.53125 675.914062 302.53125 678.078125 304.09375 C 680.964844 306.179688 684.589844 307.222656 688.933594 307.222656 C 693.011719 307.222656 697.269531 306.1875 701.730469 304.121094 L 702.121094 303.910156 L 703.476562 307.675781 L 703.164062 307.832031 C 698.617188 310.023438 693.890625 311.117188 688.960938 311.117188 C 683.511719 311.117188 678.957031 309.804688 675.277344 307.171875 C 672.582031 305.257812 670.472656 302.808594 668.960938 299.835938 C 667.464844 296.707031 666.714844 293.519531 666.714844 290.285156 C 666.714844 284.382812 668.792969 279.4375 672.957031 275.433594 C 677.121094 271.425781 682.25 269.425781 688.359375 269.425781 C 693.984375 269.425781 698.6875 271.148438 702.484375 274.597656 C 706.265625 278.003906 708.152344 282.28125 708.152344 287.417969 C 708.152344 291.386719 707.128906 294.785156 705.078125 297.621094 C 703.007812 300.488281 700.574219 301.929688 697.792969 301.929688 C 695.566406 301.929688 694.046875 300.878906 693.246094 298.777344 C 691.109375 300.964844 688.71875 302.0625 686.09375 302.0625 C 683.222656 302.0625 680.824219 301.027344 678.910156 298.957031 C 677.035156 296.90625 676.09375 294.28125 676.09375 291.101562 C 676.09375 287.675781 677.148438 284.851562 679.25 282.644531 C 681.355469 280.386719 684.003906 279.257812 687.1875 279.257812 C 690.109375 279.257812 692.472656 280.386719 694.261719 282.644531 L 694.628906 279.75 L 698.589844 279.75 Z M 693.261719 289.808594 C 693.261719 288.191406 692.714844 286.84375 691.621094 285.757812 C 690.492188 284.679688 689.117188 284.140625 687.492188 284.140625 C 685.734375 284.140625 684.300781 284.816406 683.179688 286.175781 C 682.050781 287.511719 681.484375 289.222656 681.484375 291.320312 C 681.484375 293.125 681.9375 294.613281 682.839844 295.785156 C 683.746094 296.949219 684.910156 297.53125 686.335938 297.53125 C 688.160156 297.53125 689.769531 296.757812 691.167969 295.210938 C 692.566406 293.65625 693.261719 291.859375 693.261719 289.808594 Z M 693.261719 289.808594 " fill-opacity="1" fill-rule="nonzero"/><path fill="#fdfcef" d="M 328.578125 550.382812 C 344.886719 550.382812 359.019531 550.382812 359.230469 550.382812 C 377.492188 550.382812 392.304688 535.894531 392.304688 518.019531 C 392.304688 502.425781 381.03125 489.410156 366.027344 486.339844 C 366.199219 484.976562 366.3125 483.59375 366.3125 482.1875 C 366.3125 463.675781 350.980469 448.667969 332.054688 448.667969 C 320.886719 448.667969 310.996094 453.925781 304.746094 462.015625 C 303.144531 441.410156 284.335938 425.515625 262.324219 428.148438 C 246.234375 430.078125 232.917969 442.242188 229.964844 457.84375 C 229.015625 462.847656 229.109375 467.699219 230.058594 472.261719 C 225.746094 467.714844 219.601562 464.847656 212.761719 464.847656 C 200.242188 464.847656 190.019531 474.382812 189.210938 486.4375 C 183.527344 485.203125 177.347656 485.289062 170.828125 487.679688 C 158.378906 492.25 149.515625 503.722656 148.992188 516.722656 C 148.253906 535.191406 163.335938 550.382812 182.042969 550.382812 C 183.457031 550.382812 188.457031 550.382812 189.605469 550.382812 L 258.28125 550.382812 M 272.511719 550.382812 L 275.625 550.382812 " fill-opacity="1" fill-rule="nonzero"/><path fill="#472b29" d="M 359.230469 554.730469 L 328.585938 554.730469 C 326.1875 554.730469 324.242188 552.78125 324.242188 550.382812 C 324.242188 547.984375 326.1875 546.039062 328.585938 546.039062 L 359.230469 546.039062 C 375.066406 546.039062 387.957031 533.472656 387.957031 518.019531 C 387.957031 504.824219 378.371094 493.292969 365.164062 490.609375 C 362.941406 490.148438 361.4375 488.0625 361.722656 485.8125 C 361.871094 484.621094 361.976562 483.421875 361.976562 482.1875 C 361.976562 466.089844 348.5625 453.011719 332.074219 453.011719 C 322.625 453.011719 313.921875 457.261719 308.195312 464.683594 C 307.109375 466.109375 305.25 466.691406 303.511719 466.195312 C 301.796875 465.675781 300.5625 464.160156 300.433594 462.371094 C 299.746094 453.550781 295.539062 445.546875 288.585938 439.84375 C 281.421875 433.960938 272.304688 431.355469 262.863281 432.464844 C 248.617188 434.167969 236.855469 444.945312 234.25 458.667969 C 233.429688 462.929688 233.464844 467.203125 234.328125 471.382812 C 234.726562 473.289062 233.804688 475.214844 232.082031 476.121094 C 230.371094 477.015625 228.269531 476.667969 226.910156 475.25 C 223.207031 471.347656 218.191406 469.203125 212.777344 469.203125 C 202.660156 469.203125 194.21875 476.910156 193.566406 486.742188 C 193.480469 488.007812 192.855469 489.15625 191.847656 489.921875 C 190.839844 490.675781 189.550781 490.980469 188.316406 490.695312 C 182.796875 489.511719 177.574219 489.84375 172.359375 491.773438 C 161.429688 495.777344 153.800781 505.878906 153.363281 516.90625 C 153.0625 524.476562 155.808594 531.679688 161.101562 537.191406 C 166.59375 542.902344 174.035156 546.054688 182.066406 546.054688 L 258.308594 546.054688 C 260.707031 546.054688 262.65625 548.003906 262.65625 550.402344 C 262.65625 552.800781 260.707031 554.746094 258.308594 554.746094 L 182.066406 554.746094 C 171.800781 554.746094 161.875 550.546875 154.832031 543.214844 C 147.878906 535.992188 144.28125 526.527344 144.671875 516.574219 C 145.246094 502.070312 155.171875 488.835938 169.351562 483.621094 C 174.636719 481.683594 180.085938 481.003906 185.621094 481.507812 C 188.613281 469.429688 199.730469 460.527344 212.777344 460.527344 C 217.039062 460.527344 221.21875 461.503906 224.992188 463.308594 C 225.070312 461.234375 225.304688 459.148438 225.703125 457.050781 C 229.007812 439.664062 243.863281 426.007812 261.820312 423.863281 C 273.652344 422.4375 285.074219 425.738281 294.085938 433.136719 C 300.554688 438.4375 305.144531 445.320312 307.472656 453.046875 C 314.324219 447.441406 322.929688 444.339844 332.074219 444.339844 C 353.351562 444.339844 370.667969 461.328125 370.667969 482.203125 C 370.667969 482.492188 370.660156 482.785156 370.660156 483.082031 C 385.921875 487.878906 396.648438 502.027344 396.648438 518.035156 C 396.648438 538.257812 379.863281 554.730469 359.230469 554.730469 Z M 275.625 554.730469 L 272.511719 554.730469 C 270.113281 554.730469 268.167969 552.78125 268.167969 550.382812 C 268.167969 547.984375 270.113281 546.039062 272.511719 546.039062 L 275.625 546.039062 C 278.023438 546.039062 279.972656 547.984375 279.972656 550.382812 C 279.972656 552.78125 278.023438 554.730469 275.625 554.730469 Z M 275.625 554.730469 " fill-opacity="1" fill-rule="nonzero"/><path fill="#472b29" d="M 344.453125 504.488281 C 344.296875 504.488281 344.136719 504.46875 343.972656 504.433594 C 342.800781 504.175781 342.0625 503.007812 342.332031 501.835938 C 342.652344 500.402344 343.148438 499.011719 343.789062 497.691406 C 349.042969 487.078125 363.515625 483.160156 376.023438 488.972656 C 377.117188 489.476562 377.597656 490.765625 377.082031 491.851562 C 376.578125 492.945312 375.265625 493.414062 374.207031 492.910156 C 363.792969 488.105469 351.902344 491.101562 347.695312 499.613281 C 347.191406 500.621094 346.816406 501.679688 346.574219 502.785156 C 346.335938 503.800781 345.441406 504.488281 344.453125 504.488281 Z M 299.789062 554.730469 L 290.203125 554.730469 C 287.800781 554.730469 285.855469 552.78125 285.855469 550.382812 C 285.855469 547.984375 287.800781 546.039062 290.203125 546.039062 L 299.789062 546.039062 C 302.1875 546.039062 304.136719 547.984375 304.136719 550.382812 C 304.136719 552.78125 302.1875 554.730469 299.789062 554.730469 Z M 299.789062 554.730469 " fill-opacity="1" fill-rule="nonzero"/><g clip-path="url(#1a5f478e24)"><path fill="#46cc6b" d="M 1358.589844 365.132812 C 1358.589844 471.421875 1272.425781 557.589844 1166.136719 557.589844 C 1152.09375 557.609375 1138.21875 556.105469 1124.507812 553.078125 C 1110.796875 550.046875 1097.582031 545.566406 1084.855469 539.632812 C 1081.035156 537.851562 1077.101562 536.375 1073.050781 535.214844 C 1069.003906 534.050781 1064.886719 533.214844 1060.703125 532.703125 C 1056.519531 532.191406 1052.324219 532.011719 1048.113281 532.164062 C 1043.902344 532.316406 1039.726562 532.796875 1035.59375 533.609375 L 1005.546875 539.527344 C 992.816406 542.03125 982.902344 528.613281 989.035156 517.179688 C 1000.914062 495.03125 1001.863281 468.558594 991.324219 445.742188 C 985.523438 433.179688 981.136719 420.140625 978.164062 406.625 C 975.1875 393.113281 973.695312 379.433594 973.679688 365.597656 C 973.429688 259.210938 1059.464844 172.832031 1165.851562 172.679688 C 1272.269531 172.523438 1358.589844 258.75 1358.589844 365.132812 Z M 1358.589844 365.132812 " fill-opacity="1" fill-rule="nonzero"/></g><path fill="#ffffff" d="M 1330.878906 365.132812 C 1330.878906 367.832031 1330.8125 370.523438 1330.679688 373.21875 C 1330.546875 375.910156 1330.347656 378.597656 1330.085938 381.28125 C 1329.820312 383.964844 1329.492188 386.640625 1329.09375 389.308594 C 1328.699219 391.972656 1328.238281 394.628906 1327.710938 397.273438 C 1327.1875 399.917969 1326.597656 402.546875 1325.941406 405.164062 C 1325.285156 407.777344 1324.566406 410.375 1323.785156 412.957031 C 1323 415.535156 1322.15625 418.097656 1321.246094 420.632812 C 1320.339844 423.171875 1319.371094 425.6875 1318.335938 428.179688 C 1317.304688 430.667969 1316.214844 433.132812 1315.0625 435.570312 C 1313.910156 438.007812 1312.695312 440.414062 1311.425781 442.792969 C 1310.15625 445.171875 1308.824219 447.515625 1307.441406 449.828125 C 1306.054688 452.140625 1304.613281 454.417969 1303.113281 456.660156 C 1301.617188 458.902344 1300.0625 461.105469 1298.457031 463.273438 C 1296.851562 465.4375 1295.195312 467.5625 1293.484375 469.644531 C 1291.773438 471.730469 1290.011719 473.769531 1288.203125 475.769531 C 1286.390625 477.765625 1284.53125 479.71875 1282.625 481.625 C 1280.71875 483.53125 1278.765625 485.390625 1276.769531 487.199219 C 1274.773438 489.011719 1272.730469 490.773438 1270.648438 492.480469 C 1268.5625 494.191406 1266.4375 495.851562 1264.273438 497.457031 C 1262.105469 499.0625 1259.902344 500.613281 1257.660156 502.113281 C 1255.417969 503.609375 1253.144531 505.054688 1250.828125 506.4375 C 1248.515625 507.824219 1246.171875 509.152344 1243.792969 510.425781 C 1241.417969 511.695312 1239.007812 512.90625 1236.570312 514.058594 C 1234.132812 515.210938 1231.671875 516.304688 1229.179688 517.335938 C 1226.6875 518.367188 1224.175781 519.339844 1221.636719 520.246094 C 1219.097656 521.15625 1216.539062 522 1213.957031 522.785156 C 1211.378906 523.566406 1208.78125 524.285156 1206.164062 524.941406 C 1203.550781 525.59375 1200.917969 526.1875 1198.273438 526.710938 C 1195.628906 527.238281 1192.976562 527.699219 1190.308594 528.09375 C 1187.640625 528.488281 1184.964844 528.820312 1182.28125 529.082031 C 1179.601562 529.347656 1176.910156 529.546875 1174.21875 529.679688 C 1171.527344 529.8125 1168.832031 529.878906 1166.136719 529.878906 C 1163.4375 529.878906 1160.746094 529.8125 1158.050781 529.679688 C 1155.359375 529.546875 1152.671875 529.347656 1149.988281 529.082031 C 1147.304688 528.820312 1144.628906 528.488281 1141.960938 528.09375 C 1139.296875 527.699219 1136.640625 527.238281 1133.996094 526.710938 C 1131.351562 526.1875 1128.722656 525.59375 1126.105469 524.941406 C 1123.492188 524.285156 1120.894531 523.566406 1118.3125 522.785156 C 1115.734375 522 1113.175781 521.15625 1110.636719 520.246094 C 1108.097656 519.339844 1105.582031 518.367188 1103.089844 517.335938 C 1100.601562 516.304688 1098.136719 515.210938 1095.699219 514.058594 C 1093.261719 512.90625 1090.855469 511.695312 1088.476562 510.425781 C 1086.097656 509.152344 1083.753906 507.824219 1081.441406 506.4375 C 1079.128906 505.054688 1076.851562 503.609375 1074.609375 502.113281 C 1072.367188 500.613281 1070.164062 499.0625 1068 497.457031 C 1065.832031 495.851562 1063.707031 494.191406 1061.625 492.480469 C 1059.539062 490.773438 1057.5 489.011719 1055.5 487.199219 C 1053.503906 485.390625 1051.550781 483.53125 1049.644531 481.625 C 1047.738281 479.71875 1045.878906 477.765625 1044.070312 475.769531 C 1042.257812 473.769531 1040.5 471.730469 1038.789062 469.644531 C 1037.078125 467.5625 1035.417969 465.4375 1033.8125 463.273438 C 1032.207031 461.105469 1030.65625 458.902344 1029.15625 456.660156 C 1027.660156 454.417969 1026.21875 452.140625 1024.832031 449.828125 C 1023.445312 447.515625 1022.117188 445.171875 1020.84375 442.792969 C 1019.574219 440.414062 1018.363281 438.007812 1017.210938 435.570312 C 1016.058594 433.132812 1014.964844 430.667969 1013.933594 428.179688 C 1012.902344 425.6875 1011.929688 423.171875 1011.023438 420.632812 C 1010.113281 418.097656 1009.269531 415.535156 1008.488281 412.957031 C 1007.703125 410.375 1006.984375 407.777344 1006.328125 405.164062 C 1005.675781 402.546875 1005.085938 399.917969 1004.558594 397.273438 C 1004.03125 394.628906 1003.570312 391.972656 1003.175781 389.308594 C 1002.78125 386.640625 1002.449219 383.964844 1002.1875 381.28125 C 1001.921875 378.597656 1001.722656 375.910156 1001.589844 373.21875 C 1001.457031 370.523438 1001.394531 367.832031 1001.394531 365.132812 C 1001.394531 362.4375 1001.457031 359.742188 1001.589844 357.050781 C 1001.722656 354.359375 1001.921875 351.671875 1002.1875 348.988281 C 1002.449219 346.304688 1002.78125 343.628906 1003.175781 340.960938 C 1003.570312 338.292969 1004.03125 335.640625 1004.558594 332.996094 C 1005.085938 330.351562 1005.675781 327.71875 1006.328125 325.105469 C 1006.984375 322.488281 1007.703125 319.890625 1008.488281 317.3125 C 1009.269531 314.730469 1010.113281 312.171875 1011.023438 309.632812 C 1011.929688 307.097656 1012.902344 304.582031 1013.933594 302.089844 C 1014.964844 299.597656 1016.058594 297.136719 1017.210938 294.699219 C 1018.363281 292.261719 1019.574219 289.851562 1020.84375 287.476562 C 1022.117188 285.097656 1023.445312 282.753906 1024.832031 280.441406 C 1026.21875 278.128906 1027.660156 275.851562 1029.15625 273.609375 C 1030.65625 271.367188 1032.207031 269.164062 1033.8125 266.996094 C 1035.417969 264.832031 1037.078125 262.707031 1038.789062 260.621094 C 1040.5 258.539062 1042.257812 256.496094 1044.070312 254.5 C 1045.878906 252.503906 1047.738281 250.550781 1049.644531 248.644531 C 1051.550781 246.738281 1053.503906 244.878906 1055.5 243.066406 C 1057.5 241.257812 1059.539062 239.496094 1061.625 237.785156 C 1063.707031 236.078125 1065.832031 234.417969 1068 232.8125 C 1070.164062 231.207031 1072.367188 229.652344 1074.609375 228.15625 C 1076.851562 226.65625 1079.128906 225.214844 1081.441406 223.828125 C 1083.753906 222.445312 1086.097656 221.117188 1088.476562 219.84375 C 1090.855469 218.574219 1093.261719 217.363281 1095.699219 216.207031 C 1098.136719 215.054688 1100.601562 213.964844 1103.089844 212.933594 C 1105.582031 211.898438 1108.097656 210.929688 1110.636719 210.023438 C 1113.175781 209.113281 1115.734375 208.269531 1118.3125 207.484375 C 1120.894531 206.703125 1123.492188 205.984375 1126.105469 205.328125 C 1128.722656 204.675781 1131.351562 204.082031 1133.996094 203.558594 C 1136.640625 203.03125 1139.296875 202.570312 1141.960938 202.175781 C 1144.628906 201.78125 1147.304688 201.449219 1149.988281 201.183594 C 1152.671875 200.921875 1155.359375 200.722656 1158.050781 200.589844 C 1160.746094 200.457031 1163.4375 200.390625 1166.136719 200.390625 C 1168.832031 200.390625 1171.527344 200.457031 1174.21875 200.589844 C 1176.910156 200.722656 1179.601562 200.921875 1182.28125 201.183594 C 1184.964844 201.449219 1187.640625 201.78125 1190.308594 202.175781 C 1192.976562 202.570312 1195.628906 203.03125 1198.273438 203.558594 C 1200.917969 204.082031 1203.550781 204.675781 1206.164062 205.328125 C 1208.78125 205.984375 1211.378906 206.703125 1213.957031 207.484375 C 1216.539062 208.269531 1219.097656 209.113281 1221.636719 210.023438 C 1224.175781 210.929688 1226.6875 211.898438 1229.179688 212.933594 C 1231.671875 213.964844 1234.132812 215.054688 1236.570312 216.207031 C 1239.007812 217.363281 1241.417969 218.574219 1243.792969 219.84375 C 1246.171875 221.117188 1248.515625 222.445312 1250.828125 223.828125 C 1253.144531 225.214844 1255.417969 226.65625 1257.660156 228.15625 C 1259.902344 229.652344 1262.105469 231.207031 1264.273438 232.8125 C 1266.4375 234.417969 1268.5625 236.078125 1270.648438 237.785156 C 1272.730469 239.496094 1274.773438 241.257812 1276.769531 243.066406 C 1278.765625 244.878906 1280.71875 246.738281 1282.625 248.644531 C 1284.53125 250.550781 1286.390625 252.503906 1288.203125 254.5 C 1290.011719 256.496094 1291.773438 258.539062 1293.484375 260.621094 C 1295.195312 262.707031 1296.851562 264.832031 1298.457031 266.996094 C 1300.0625 269.164062 1301.617188 271.367188 1303.113281 273.609375 C 1304.613281 275.851562 1306.054688 278.128906 1307.441406 280.441406 C 1308.824219 282.753906 1310.15625 285.097656 1311.425781 287.476562 C 1312.695312 289.851562 1313.910156 292.261719 1315.0625 294.699219 C 1316.214844 297.136719 1317.304688 299.597656 1318.335938 302.089844 C 1319.371094 304.582031 1320.339844 307.097656 1321.246094 309.632812 C 1322.15625 312.171875 1323 314.730469 1323.785156 317.3125 C 1324.566406 319.890625 1325.285156 322.488281 1325.941406 325.105469 C 1326.597656 327.71875 1327.1875 330.351562 1327.710938 332.996094 C 1328.238281 335.640625 1328.699219 338.292969 1329.09375 340.960938 C 1329.492188 343.628906 1329.820312 346.304688 1330.085938 348.988281 C 1330.347656 351.671875 1330.546875 354.359375 1330.679688 357.050781 C 1330.8125 359.742188 1330.878906 362.4375 1330.878906 365.132812 Z M 1330.878906 365.132812 " fill-opacity="1" fill-rule="nonzero"/><path fill="#46cc6b" d="M 1301.460938 365.132812 C 1301.460938 367.347656 1301.40625 369.5625 1301.296875 371.773438 C 1301.1875 373.988281 1301.023438 376.195312 1300.808594 378.398438 C 1300.589844 380.601562 1300.320312 382.800781 1299.996094 384.992188 C 1299.671875 387.179688 1299.292969 389.363281 1298.859375 391.535156 C 1298.425781 393.707031 1297.941406 395.867188 1297.40625 398.015625 C 1296.867188 400.164062 1296.277344 402.296875 1295.632812 404.417969 C 1294.988281 406.535156 1294.296875 408.636719 1293.550781 410.722656 C 1292.804688 412.808594 1292.007812 414.875 1291.160156 416.921875 C 1290.3125 418.96875 1289.414062 420.992188 1288.46875 422.992188 C 1287.519531 424.996094 1286.523438 426.972656 1285.480469 428.925781 C 1284.4375 430.878906 1283.34375 432.804688 1282.207031 434.707031 C 1281.070312 436.605469 1279.882812 438.476562 1278.652344 440.316406 C 1277.421875 442.15625 1276.148438 443.96875 1274.828125 445.746094 C 1273.507812 447.527344 1272.148438 449.269531 1270.742188 450.984375 C 1269.335938 452.695312 1267.890625 454.371094 1266.402344 456.011719 C 1264.917969 457.652344 1263.390625 459.257812 1261.824219 460.824219 C 1260.257812 462.390625 1258.65625 463.914062 1257.015625 465.402344 C 1255.371094 466.890625 1253.695312 468.335938 1251.984375 469.742188 C 1250.273438 471.148438 1248.527344 472.507812 1246.746094 473.828125 C 1244.96875 475.148438 1243.160156 476.421875 1241.316406 477.652344 C 1239.476562 478.882812 1237.605469 480.066406 1235.707031 481.207031 C 1233.804688 482.34375 1231.878906 483.4375 1229.925781 484.480469 C 1227.972656 485.523438 1225.996094 486.519531 1223.992188 487.464844 C 1221.992188 488.414062 1219.96875 489.308594 1217.921875 490.15625 C 1215.875 491.003906 1213.808594 491.800781 1211.726562 492.546875 C 1209.640625 493.292969 1207.539062 493.988281 1205.417969 494.632812 C 1203.296875 495.273438 1201.164062 495.863281 1199.015625 496.402344 C 1196.867188 496.941406 1194.707031 497.425781 1192.535156 497.859375 C 1190.363281 498.289062 1188.183594 498.667969 1185.992188 498.992188 C 1183.800781 499.320312 1181.605469 499.589844 1179.398438 499.808594 C 1177.195312 500.023438 1174.988281 500.1875 1172.777344 500.296875 C 1170.5625 500.40625 1168.351562 500.457031 1166.136719 500.457031 C 1163.921875 500.457031 1161.707031 500.40625 1159.496094 500.296875 C 1157.285156 500.1875 1155.074219 500.023438 1152.871094 499.808594 C 1150.667969 499.589844 1148.46875 499.320312 1146.277344 498.996094 C 1144.089844 498.667969 1141.90625 498.289062 1139.734375 497.859375 C 1137.5625 497.425781 1135.402344 496.941406 1133.253906 496.402344 C 1131.105469 495.863281 1128.972656 495.273438 1126.851562 494.632812 C 1124.734375 493.988281 1122.632812 493.292969 1120.546875 492.546875 C 1118.460938 491.800781 1116.394531 491.003906 1114.347656 490.15625 C 1112.304688 489.308594 1110.277344 488.414062 1108.277344 487.464844 C 1106.273438 486.519531 1104.296875 485.523438 1102.34375 484.480469 C 1100.390625 483.4375 1098.464844 482.34375 1096.566406 481.207031 C 1094.664062 480.066406 1092.792969 478.882812 1090.953125 477.652344 C 1089.113281 476.421875 1087.300781 475.148438 1085.523438 473.828125 C 1083.742188 472.507812 1082 471.148438 1080.285156 469.742188 C 1078.574219 468.335938 1076.898438 466.890625 1075.257812 465.402344 C 1073.617188 463.914062 1072.011719 462.390625 1070.445312 460.824219 C 1068.878906 459.257812 1067.355469 457.652344 1065.867188 456.011719 C 1064.378906 454.371094 1062.933594 452.695312 1061.527344 450.984375 C 1060.125 449.269531 1058.761719 447.527344 1057.441406 445.746094 C 1056.121094 443.96875 1054.847656 442.15625 1053.617188 440.316406 C 1052.386719 438.476562 1051.203125 436.605469 1050.0625 434.703125 C 1048.925781 432.804688 1047.835938 430.878906 1046.789062 428.925781 C 1045.746094 426.972656 1044.75 424.996094 1043.804688 422.992188 C 1042.855469 420.992188 1041.960938 418.96875 1041.113281 416.921875 C 1040.265625 414.875 1039.46875 412.808594 1038.722656 410.722656 C 1037.976562 408.636719 1037.28125 406.535156 1036.636719 404.417969 C 1035.996094 402.296875 1035.40625 400.164062 1034.867188 398.015625 C 1034.328125 395.867188 1033.84375 393.707031 1033.410156 391.535156 C 1032.980469 389.363281 1032.601562 387.179688 1032.277344 384.992188 C 1031.949219 382.800781 1031.679688 380.601562 1031.460938 378.398438 C 1031.246094 376.195312 1031.082031 373.988281 1030.972656 371.773438 C 1030.867188 369.5625 1030.8125 367.347656 1030.8125 365.132812 C 1030.8125 362.917969 1030.867188 360.707031 1030.972656 358.496094 C 1031.082031 356.28125 1031.246094 354.074219 1031.460938 351.871094 C 1031.679688 349.667969 1031.949219 347.46875 1032.277344 345.277344 C 1032.601562 343.085938 1032.980469 340.90625 1033.410156 338.734375 C 1033.84375 336.5625 1034.328125 334.402344 1034.867188 332.253906 C 1035.40625 330.105469 1035.996094 327.972656 1036.636719 325.851562 C 1037.28125 323.734375 1037.976562 321.628906 1038.722656 319.546875 C 1039.46875 317.460938 1040.265625 315.394531 1041.113281 313.347656 C 1041.960938 311.300781 1042.855469 309.277344 1043.804688 307.277344 C 1044.75 305.273438 1045.746094 303.296875 1046.789062 301.34375 C 1047.835938 299.390625 1048.925781 297.464844 1050.0625 295.5625 C 1051.203125 293.664062 1052.386719 291.792969 1053.617188 289.953125 C 1054.847656 288.109375 1056.121094 286.300781 1057.441406 284.523438 C 1058.761719 282.742188 1060.125 280.996094 1061.527344 279.285156 C 1062.933594 277.574219 1064.378906 275.898438 1065.867188 274.257812 C 1067.355469 272.617188 1068.878906 271.011719 1070.445312 269.445312 C 1072.011719 267.878906 1073.617188 266.351562 1075.257812 264.867188 C 1076.898438 263.378906 1078.574219 261.933594 1080.285156 260.527344 C 1082 259.121094 1083.742188 257.761719 1085.523438 256.441406 C 1087.300781 255.121094 1089.113281 253.847656 1090.953125 252.617188 C 1092.792969 251.386719 1094.664062 250.203125 1096.566406 249.0625 C 1098.464844 247.925781 1100.390625 246.832031 1102.34375 245.789062 C 1104.296875 244.746094 1106.273438 243.75 1108.277344 242.804688 C 1110.277344 241.855469 1112.304688 240.957031 1114.347656 240.109375 C 1116.394531 239.261719 1118.460938 238.464844 1120.546875 237.71875 C 1122.632812 236.972656 1124.734375 236.28125 1126.851562 235.636719 C 1128.972656 234.996094 1131.105469 234.402344 1133.253906 233.867188 C 1135.402344 233.328125 1137.5625 232.84375 1139.734375 232.410156 C 1141.90625 231.976562 1144.089844 231.601562 1146.277344 231.273438 C 1148.46875 230.949219 1150.667969 230.679688 1152.871094 230.460938 C 1155.074219 230.246094 1157.285156 230.082031 1159.496094 229.972656 C 1161.707031 229.863281 1163.921875 229.808594 1166.136719 229.808594 C 1168.351562 229.808594 1170.5625 229.863281 1172.777344 229.972656 C 1174.988281 230.082031 1177.195312 230.246094 1179.398438 230.460938 C 1181.605469 230.679688 1183.800781 230.949219 1185.992188 231.273438 C 1188.183594 231.601562 1190.363281 231.976562 1192.535156 232.410156 C 1194.707031 232.84375 1196.867188 233.328125 1199.015625 233.867188 C 1201.164062 234.402344 1203.296875 234.996094 1205.417969 235.636719 C 1207.539062 236.28125 1209.640625 236.972656 1211.726562 237.71875 C 1213.808594 238.464844 1215.875 239.261719 1217.921875 240.109375 C 1219.96875 240.957031 1221.992188 241.855469 1223.992188 242.804688 C 1225.996094 243.75 1227.972656 244.746094 1229.925781 245.789062 C 1231.878906 246.832031 1233.804688 247.925781 1235.707031 249.0625 C 1237.605469 250.203125 1239.476562 251.386719 1241.316406 252.617188 C 1243.160156 253.847656 1244.96875 255.121094 1246.746094 256.441406 C 1248.527344 257.761719 1250.273438 259.121094 1251.984375 260.527344 C 1253.695312 261.933594 1255.371094 263.378906 1257.015625 264.867188 C 1258.65625 266.351562 1260.257812 267.878906 1261.824219 269.445312 C 1263.390625 271.011719 1264.917969 272.617188 1266.402344 274.257812 C 1267.890625 275.898438 1269.335938 277.574219 1270.742188 279.285156 C 1272.148438 280.996094 1273.507812 282.742188 1274.828125 284.523438 C 1276.148438 286.300781 1277.421875 288.109375 1278.652344 289.953125 C 1279.882812 291.792969 1281.070312 293.664062 1282.207031 295.5625 C 1283.34375 297.464844 1284.4375 299.390625 1285.480469 301.34375 C 1286.523438 303.296875 1287.519531 305.273438 1288.46875 307.277344 C 1289.414062 309.277344 1290.3125 311.300781 1291.160156 313.347656 C 1292.007812 315.394531 1292.804688 317.460938 1293.550781 319.546875 C 1294.296875 321.628906 1294.988281 323.734375 1295.632812 325.851562 C 1296.277344 327.972656 1296.867188 330.105469 1297.40625 332.253906 C 1297.941406 334.402344 1298.425781 336.5625 1298.859375 338.734375 C 1299.292969 340.90625 1299.671875 343.085938 1299.996094 345.277344 C 1300.320312 347.46875 1300.589844 349.667969 1300.808594 351.871094 C 1301.023438 354.074219 1301.1875 356.28125 1301.296875 358.496094 C 1301.40625 360.707031 1301.460938 362.917969 1301.460938 365.132812 Z M 1301.460938 365.132812 " fill-opacity="1" fill-rule="nonzero"/><path fill="#ffffff" d="M 1146.304688 334.761719 L 1139.464844 314.335938 C 1139.273438 313.753906 1139.046875 313.183594 1138.792969 312.625 C 1138.539062 312.066406 1138.253906 311.523438 1137.941406 310.996094 C 1137.628906 310.46875 1137.292969 309.957031 1136.925781 309.464844 C 1136.558594 308.972656 1136.171875 308.503906 1135.753906 308.050781 C 1135.339844 307.601562 1134.902344 307.171875 1134.441406 306.765625 C 1133.980469 306.359375 1133.5 305.980469 1133 305.625 C 1132.5 305.273438 1131.980469 304.945312 1131.445312 304.644531 C 1130.910156 304.34375 1130.363281 304.074219 1129.800781 303.832031 C 1129.234375 303.589844 1128.660156 303.378906 1128.074219 303.195312 C 1127.488281 303.015625 1126.894531 302.863281 1126.292969 302.746094 C 1125.691406 302.625 1125.085938 302.539062 1124.476562 302.484375 C 1123.863281 302.429688 1123.253906 302.40625 1122.640625 302.414062 C 1122.027344 302.425781 1121.414062 302.464844 1120.804688 302.539062 C 1120.199219 302.613281 1119.59375 302.71875 1118.996094 302.855469 C 1118.398438 302.992188 1117.808594 303.160156 1117.230469 303.359375 C 1116.648438 303.558594 1116.082031 303.789062 1115.527344 304.046875 L 1104.496094 309.1875 C 1103.605469 309.601562 1102.753906 310.089844 1101.941406 310.652344 C 1101.132812 311.210938 1100.378906 311.835938 1099.671875 312.523438 C 1098.96875 313.210938 1098.328125 313.953125 1097.75 314.746094 C 1097.167969 315.542969 1096.660156 316.382812 1096.226562 317.265625 C 1095.789062 318.148438 1095.425781 319.058594 1095.144531 320 C 1094.863281 320.945312 1094.660156 321.90625 1094.539062 322.882812 C 1094.417969 323.859375 1094.378906 324.839844 1094.425781 325.820312 C 1094.46875 326.804688 1094.597656 327.777344 1094.804688 328.738281 C 1101.710938 360.664062 1127.085938 437.113281 1212.765625 446.644531 C 1213.613281 446.738281 1214.460938 446.769531 1215.308594 446.742188 C 1216.160156 446.710938 1217.003906 446.621094 1217.839844 446.464844 C 1218.679688 446.3125 1219.5 446.101562 1220.304688 445.828125 C 1221.113281 445.554688 1221.894531 445.226562 1222.652344 444.839844 C 1223.410156 444.449219 1224.136719 444.011719 1224.828125 443.515625 C 1225.523438 443.023438 1226.175781 442.484375 1226.789062 441.894531 C 1227.40625 441.304688 1227.972656 440.675781 1228.496094 440.003906 C 1229.019531 439.332031 1229.488281 438.625 1229.910156 437.886719 L 1235.597656 427.835938 C 1235.878906 427.339844 1236.132812 426.828125 1236.367188 426.304688 C 1236.597656 425.78125 1236.804688 425.25 1236.984375 424.707031 C 1237.160156 424.164062 1237.3125 423.613281 1237.4375 423.054688 C 1237.5625 422.496094 1237.660156 421.933594 1237.730469 421.367188 C 1237.800781 420.796875 1237.84375 420.226562 1237.855469 419.65625 C 1237.871094 419.085938 1237.855469 418.511719 1237.8125 417.941406 C 1237.773438 417.371094 1237.703125 416.804688 1237.605469 416.242188 C 1237.507812 415.675781 1237.378906 415.121094 1237.226562 414.570312 C 1237.074219 414.015625 1236.894531 413.476562 1236.691406 412.941406 C 1236.484375 412.40625 1236.25 411.886719 1235.996094 411.375 C 1235.738281 410.863281 1235.457031 410.367188 1235.148438 409.882812 C 1234.84375 409.398438 1234.515625 408.933594 1234.160156 408.480469 C 1233.808594 408.03125 1233.4375 407.597656 1233.042969 407.183594 C 1232.648438 406.769531 1232.234375 406.375 1231.800781 406.003906 C 1231.367188 405.628906 1230.914062 405.277344 1230.449219 404.949219 C 1229.980469 404.621094 1229.496094 404.3125 1229 404.03125 L 1228.882812 403.964844 L 1213.609375 395.476562 C 1212.789062 395.023438 1211.9375 394.632812 1211.050781 394.316406 C 1210.167969 393.996094 1209.265625 393.75 1208.339844 393.578125 C 1207.417969 393.402344 1206.488281 393.304688 1205.546875 393.285156 C 1204.609375 393.261719 1203.671875 393.3125 1202.742188 393.441406 C 1201.8125 393.570312 1200.898438 393.773438 1200 394.046875 C 1199.101562 394.324219 1198.230469 394.667969 1197.386719 395.085938 C 1196.546875 395.5 1195.742188 395.984375 1194.976562 396.527344 C 1194.210938 397.074219 1193.496094 397.679688 1192.828125 398.339844 C 1192.167969 398.996094 1191.457031 399.597656 1190.695312 400.144531 C 1189.9375 400.6875 1189.140625 401.167969 1188.304688 401.582031 C 1187.46875 402 1186.601562 402.34375 1185.710938 402.621094 C 1184.820312 402.898438 1183.910156 403.101562 1182.988281 403.234375 C 1182.0625 403.363281 1181.132812 403.421875 1180.199219 403.402344 C 1179.265625 403.386719 1178.339844 403.292969 1177.421875 403.125 C 1176.5 402.957031 1175.601562 402.71875 1174.722656 402.40625 C 1173.839844 402.09375 1172.992188 401.714844 1172.171875 401.269531 C 1162.886719 396.167969 1150.160156 387.464844 1141.238281 374.613281 C 1140.738281 373.898438 1140.296875 373.148438 1139.90625 372.363281 C 1139.519531 371.582031 1139.191406 370.773438 1138.925781 369.941406 C 1138.660156 369.109375 1138.457031 368.265625 1138.316406 367.402344 C 1138.175781 366.539062 1138.101562 365.671875 1138.089844 364.800781 C 1138.078125 363.925781 1138.132812 363.058594 1138.253906 362.191406 C 1138.375 361.328125 1138.558594 360.476562 1138.804688 359.636719 C 1139.050781 358.800781 1139.359375 357.984375 1139.726562 357.195312 C 1140.097656 356.402344 1140.523438 355.640625 1141.003906 354.914062 L 1144.289062 349.976562 C 1145.023438 348.871094 1145.625 347.695312 1146.09375 346.449219 C 1146.5625 345.203125 1146.882812 343.921875 1147.058594 342.601562 C 1147.234375 341.285156 1147.257812 339.964844 1147.128906 338.640625 C 1147.003906 337.316406 1146.726562 336.023438 1146.304688 334.761719 Z M 1146.304688 334.761719 " fill-opacity="1" fill-rule="nonzero"/><g clip-path="url(#4fcddcc369)"><path fill="#000000" d="M 710.269531 224.34375 C 705.230469 220.921875 706.300781 216.875 707.660156 213.007812 C 711.367188 202.304688 716.851562 192.667969 725.207031 184.78125 C 751.84375 159.6875 783.386719 143.390625 818.5625 134.355469 C 854.625 125.085938 890.21875 127.121094 924.636719 141.929688 C 940.828125 148.902344 956.652344 156.761719 973.207031 164.492188 C 972.605469 162.6875 972.058594 160.390625 971.117188 158.222656 C 964.824219 143.46875 965.375 139.996094 976.628906 128.347656 C 979.136719 125.738281 982.113281 123.597656 985.609375 120.59375 C 987.492188 123.621094 988.902344 125.765625 990.179688 127.984375 C 1003.996094 151.824219 1017.390625 175.929688 1031.882812 199.378906 C 1035.382812 205.070312 1035.070312 209.457031 1032.773438 214.289062 C 1028.125 224.003906 1019.949219 230.949219 1011.4375 236.929688 C 1008.460938 239.019531 1002.898438 238.339844 998.695312 237.738281 C 967.90625 233.222656 936.988281 231.578125 905.992188 234.058594 C 896.328125 234.839844 886.796875 237.085938 876.351562 238.785156 C 875.203125 235.703125 877.109375 232.28125 878.9375 229.382812 C 887.527344 215.777344 897.972656 204.445312 915.105469 202.042969 C 923.199219 200.917969 931.269531 199.71875 939.363281 198.671875 C 942.96875 198.203125 946.625 198.097656 951.089844 197.757812 C 934.558594 179.792969 861.910156 162.585938 825.066406 167.335938 C 780.253906 173.109375 742.234375 192.953125 710.269531 224.34375 Z M 710.269531 224.34375 " fill-opacity="1" fill-rule="nonzero"/></g><g fill="#000000" fill-opacity="1"><g transform="translate(242.638524, 640.704494)"><g><path d="M 43.453125 1.109375 C 41.140625 1.109375 38.9375 0.738281 36.84375 0 L 6.765625 -111.9375 C 8.234375 -112.988281 10.410156 -113.851562 13.296875 -114.53125 C 16.191406 -115.21875 18.6875 -115.40625 20.78125 -115.09375 L 45.1875 -24.25 L 71.796875 -93.203125 C 73.890625 -93.941406 76.144531 -94.3125 78.5625 -94.3125 C 80.65625 -94.3125 82.804688 -93.941406 85.015625 -93.203125 L 111.78125 -23.9375 L 136.1875 -115.09375 C 138.914062 -115.40625 141.535156 -115.21875 144.046875 -114.53125 C 146.566406 -113.851562 148.507812 -112.988281 149.875 -111.9375 L 120.125 0 C 117.8125 0.738281 115.554688 1.109375 113.359375 1.109375 C 111.046875 1.109375 108.84375 0.738281 106.75 0 L 78.40625 -73.203125 L 50.21875 0 C 47.914062 0.738281 45.660156 1.109375 43.453125 1.109375 Z M 43.453125 1.109375 "/></g></g></g><g fill="#000000" fill-opacity="1"><g transform="translate(399.285375, 640.704494)"><g><path d="M -1.265625 2.203125 C -2.628906 2.203125 -3.726562 1.570312 -4.5625 0.3125 C -5.40625 -0.945312 -5.828125 -2.570312 -5.828125 -4.5625 C -5.828125 -6.664062 -5.328125 -8.316406 -4.328125 -9.515625 C -3.328125 -10.722656 -1.988281 -11.328125 -0.3125 -11.328125 C 4.40625 -11.328125 8.914062 -13.453125 13.21875 -17.703125 C 17.53125 -21.960938 22.359375 -29.179688 27.703125 -39.359375 L 27.703125 -122.640625 C 27.703125 -133.140625 29.90625 -141.222656 34.3125 -146.890625 C 38.726562 -152.554688 45.082031 -155.335938 53.375 -155.234375 C 60.925781 -155.128906 66.828125 -152.191406 71.078125 -146.421875 C 75.328125 -140.648438 77.453125 -133.144531 77.453125 -123.90625 C 77.453125 -116.445312 76.140625 -108.148438 73.515625 -99.015625 C 70.898438 -89.890625 67.382812 -81.128906 62.96875 -72.734375 C 64.125 -72.835938 65.28125 -72.890625 66.4375 -72.890625 C 74.3125 -72.890625 80.582031 -70.109375 85.25 -64.546875 C 89.925781 -58.984375 92.265625 -51.53125 92.265625 -42.1875 L 92.265625 -28.65625 C 92.265625 -22.5625 93.023438 -18.148438 94.546875 -15.421875 C 96.066406 -12.691406 98.609375 -11.328125 102.171875 -11.328125 C 103.859375 -11.328125 105.066406 -10.671875 105.796875 -9.359375 C 106.535156 -8.054688 106.90625 -6.40625 106.90625 -4.40625 C 106.90625 -2.414062 106.40625 -0.816406 105.40625 0.390625 C 104.40625 1.597656 103.015625 2.203125 101.234375 2.203125 C 93.671875 2.203125 87.867188 -0.234375 83.828125 -5.109375 C 79.796875 -9.992188 77.78125 -16.894531 77.78125 -25.8125 L 77.78125 -42.515625 C 77.78125 -47.859375 76.597656 -52.023438 74.234375 -55.015625 C 71.867188 -58.015625 68.535156 -59.515625 64.234375 -59.515625 C 60.035156 -59.515625 56.253906 -58.125 52.890625 -55.34375 C 49.535156 -52.5625 46.859375 -48.753906 44.859375 -43.921875 C 42.867188 -39.097656 41.820312 -33.535156 41.71875 -27.234375 L 41.71875 0 C 40.664062 0.3125 39.507812 0.570312 38.25 0.78125 C 37 1 35.796875 1.109375 34.640625 1.109375 C 32.328125 1.109375 30.015625 0.738281 27.703125 0 L 27.703125 -13.546875 C 23.296875 -7.765625 18.835938 -3.691406 14.328125 -1.328125 C 9.816406 1.023438 4.617188 2.203125 -1.265625 2.203125 Z M 41.25 -122.796875 L 41.25 -62.03125 C 45.96875 -69.269531 50.03125 -76.5625 53.4375 -83.90625 C 56.851562 -91.257812 59.476562 -98.375 61.3125 -105.25 C 63.15625 -112.125 64.078125 -118.394531 64.078125 -124.0625 C 64.078125 -129.9375 63.101562 -134.421875 61.15625 -137.515625 C 59.21875 -140.617188 56.410156 -142.171875 52.734375 -142.171875 C 45.078125 -142.171875 41.25 -135.710938 41.25 -122.796875 Z M 41.25 -122.796875 "/></g></g></g><g fill="#000000" fill-opacity="1"><g transform="translate(501.774891, 640.704494)"><g><path d="M -0.15625 -11.328125 C 3.414062 -11.328125 6.90625 -13.085938 10.3125 -16.609375 C 13.71875 -20.128906 16.578125 -24.878906 18.890625 -30.859375 C 18.785156 -32.328125 18.734375 -33.796875 18.734375 -35.265625 C 18.734375 -43.242188 20.304688 -50.328125 23.453125 -56.515625 C 26.609375 -62.710938 30.882812 -67.59375 36.28125 -71.15625 C 41.6875 -74.726562 47.851562 -76.515625 54.78125 -76.515625 C 58.457031 -76.515625 62.078125 -75.804688 65.640625 -74.390625 C 69.210938 -72.972656 72.207031 -71.054688 74.625 -68.640625 L 74.625 -75.09375 C 75.570312 -75.40625 76.675781 -75.664062 77.9375 -75.875 C 79.195312 -76.09375 80.507812 -76.203125 81.875 -76.203125 C 84.382812 -76.203125 86.742188 -75.832031 88.953125 -75.09375 L 88.953125 -28.96875 C 88.953125 -23.40625 89.816406 -19.070312 91.546875 -15.96875 C 93.273438 -12.875 96.1875 -11.328125 100.28125 -11.328125 C 102.070312 -11.328125 103.28125 -10.59375 103.90625 -9.125 C 104.539062 -7.65625 104.859375 -6.082031 104.859375 -4.40625 C 104.859375 -2.726562 104.410156 -1.207031 103.515625 0.15625 C 102.617188 1.519531 101.175781 2.203125 99.1875 2.203125 C 88.894531 2.203125 82.019531 -2.414062 78.5625 -11.65625 C 75.519531 -7.351562 71.710938 -3.96875 67.140625 -1.5 C 62.578125 0.96875 57.515625 2.203125 51.953125 2.203125 C 45.867188 2.203125 40.488281 0.863281 35.8125 -1.8125 C 31.144531 -4.488281 27.34375 -8.1875 24.40625 -12.90625 C 17.894531 -2.832031 9.335938 2.203125 -1.265625 2.203125 C -2.628906 2.203125 -3.726562 1.570312 -4.5625 0.3125 C -5.40625 -0.945312 -5.828125 -2.570312 -5.828125 -4.5625 C -5.828125 -9.070312 -3.9375 -11.328125 -0.15625 -11.328125 Z M 33.375 -35.265625 C 33.375 -27.816406 35.078125 -21.960938 38.484375 -17.703125 C 41.898438 -13.453125 46.597656 -11.328125 52.578125 -11.328125 C 59.191406 -11.328125 64.519531 -13.769531 68.5625 -18.65625 C 72.601562 -23.539062 74.625 -29.96875 74.625 -37.9375 L 74.625 -53.53125 C 72.53125 -56.363281 69.851562 -58.644531 66.59375 -60.375 C 63.34375 -62.101562 59.984375 -62.96875 56.515625 -62.96875 C 52.003906 -62.96875 48.015625 -61.757812 44.546875 -59.34375 C 41.085938 -56.9375 38.359375 -53.660156 36.359375 -49.515625 C 34.367188 -45.367188 33.375 -40.617188 33.375 -35.265625 Z M 33.375 -35.265625 "/></g></g></g><g fill="#000000" fill-opacity="1"><g transform="translate(602.217842, 640.704494)"><g><path d="M -0.15625 -11.328125 C 2.46875 -11.328125 5.484375 -12.113281 8.890625 -13.6875 C 12.304688 -15.269531 15.640625 -17.945312 18.890625 -21.71875 C 22.140625 -25.5 24.816406 -30.617188 26.921875 -37.078125 C 29.023438 -43.535156 30.078125 -51.644531 30.078125 -61.40625 L 30.078125 -76.515625 L 18.421875 -76.515625 C 17.679688 -78.191406 17.3125 -80.289062 17.3125 -82.8125 C 17.3125 -85.332031 17.679688 -87.429688 18.421875 -89.109375 L 30.078125 -89.109375 L 30.078125 -116.96875 C 32.066406 -117.707031 34.476562 -118.078125 37.3125 -118.078125 C 39.832031 -118.078125 42.25 -117.707031 44.5625 -116.96875 L 44.5625 -89.109375 L 68.015625 -89.109375 C 68.847656 -87.429688 69.265625 -85.332031 69.265625 -82.8125 C 69.265625 -80.289062 68.847656 -78.191406 68.015625 -76.515625 L 44.5625 -76.515625 L 44.5625 -43.921875 C 44.5625 -33.429688 46.160156 -25.375 49.359375 -19.75 C 52.554688 -14.132812 57.09375 -11.328125 62.96875 -11.328125 C 66.019531 -11.328125 67.546875 -9.019531 67.546875 -4.40625 C 67.546875 -2.414062 67.046875 -0.816406 66.046875 0.390625 C 65.046875 1.597656 63.65625 2.203125 61.875 2.203125 C 55.050781 2.203125 49.300781 0.257812 44.625 -3.625 C 39.957031 -7.507812 36.523438 -12.914062 34.328125 -19.84375 C 29.910156 -12.28125 24.5 -6.710938 18.09375 -3.140625 C 11.695312 0.421875 5.242188 2.203125 -1.265625 2.203125 C -2.628906 2.203125 -3.726562 1.546875 -4.5625 0.234375 C -5.40625 -1.078125 -5.828125 -2.675781 -5.828125 -4.5625 C -5.828125 -6.5625 -5.351562 -8.1875 -4.40625 -9.4375 C -3.457031 -10.695312 -2.039062 -11.328125 -0.15625 -11.328125 Z M -0.15625 -11.328125 "/></g></g></g><g fill="#000000" fill-opacity="1"><g transform="translate(665.348924, 640.704494)"><g><path d="M -1.265625 2.203125 C -2.628906 2.203125 -3.726562 1.570312 -4.5625 0.3125 C -5.40625 -0.945312 -5.828125 -2.570312 -5.828125 -4.5625 C -5.828125 -9.070312 -3.9375 -11.328125 -0.15625 -11.328125 C 3.195312 -11.328125 6.921875 -13.398438 11.015625 -17.546875 C 15.109375 -21.691406 19.882812 -28.382812 25.34375 -37.625 L 42.1875 -66.125 C 41.976562 -67.59375 41.875 -69.164062 41.875 -70.84375 C 41.875 -76.09375 42.84375 -79.976562 44.78125 -82.5 C 46.726562 -85.019531 48.332031 -86.539062 49.59375 -87.0625 C 51.375 -87.476562 53.285156 -87.453125 55.328125 -86.984375 C 57.378906 -86.515625 59.242188 -85.753906 60.921875 -84.703125 C 62.609375 -83.648438 63.765625 -82.390625 64.390625 -80.921875 C 63.972656 -79.035156 63.1875 -76.78125 62.03125 -74.15625 C 60.875 -71.53125 59.035156 -68.015625 56.515625 -63.609375 C 57.253906 -62.453125 58.195312 -61.296875 59.34375 -60.140625 C 60.5 -58.984375 61.921875 -57.722656 63.609375 -56.359375 L 75.5625 -46.59375 C 79.875 -43.132812 83.101562 -39.539062 85.25 -35.8125 C 87.40625 -32.09375 88.484375 -27.921875 88.484375 -23.296875 C 88.484375 -17.734375 86.90625 -12.800781 83.75 -8.5 C 84.28125 -7.34375 84.546875 -5.976562 84.546875 -4.40625 C 84.546875 -2.414062 84.046875 -0.816406 83.046875 0.390625 C 82.046875 1.597656 80.65625 2.203125 78.875 2.203125 C 77.195312 2.203125 75.570312 2.097656 74 1.890625 C 72.425781 1.679688 70.691406 1.421875 68.796875 1.109375 C 65.960938 1.835938 62.972656 2.203125 59.828125 2.203125 C 56.148438 2.203125 52.472656 1.648438 48.796875 0.546875 C 45.128906 -0.554688 41.300781 -2.3125 37.3125 -4.71875 C 37.101562 -10.28125 39.203125 -14.375 43.609375 -17 C 49.378906 -13.21875 54.835938 -11.328125 59.984375 -11.328125 C 64.390625 -11.328125 67.90625 -12.507812 70.53125 -14.875 C 73.15625 -17.238281 74.46875 -20.257812 74.46875 -23.9375 C 74.46875 -28.550781 71.945312 -32.851562 66.90625 -36.84375 L 54.953125 -46.28125 C 52.847656 -47.96875 50.957031 -49.703125 49.28125 -51.484375 L 33.53125 -24.875 C 27.757812 -15.113281 22.222656 -8.160156 16.921875 -4.015625 C 11.617188 0.128906 5.554688 2.203125 -1.265625 2.203125 Z M -1.265625 2.203125 "/></g></g></g><g fill="#000000" fill-opacity="1"><g transform="translate(760.911408, 640.704494)"><g><path d="M 19.046875 2.203125 C 16.742188 1.890625 14.4375 1.3125 12.125 0.46875 C 9.8125 -0.363281 7.867188 -1.570312 6.296875 -3.15625 L 50.375 -113.671875 C 52.0625 -114.398438 54.054688 -114.765625 56.359375 -114.765625 C 58.984375 -114.765625 61.03125 -114.398438 62.5 -113.671875 L 106.90625 -3.3125 C 105.539062 -1.84375 103.703125 -0.660156 101.390625 0.234375 C 99.078125 1.128906 96.503906 1.785156 93.671875 2.203125 L 81.234375 -29.125 L 31.328125 -29.125 Z M 36.6875 -42.671875 L 75.890625 -42.671875 L 56.203125 -92.265625 Z M 36.6875 -42.671875 "/></g></g></g><g fill="#000000" fill-opacity="1"><g transform="translate(874.106543, 640.704494)"><g><path d="M -1.265625 2.203125 C -2.628906 2.203125 -3.726562 1.570312 -4.5625 0.3125 C -5.40625 -0.945312 -5.828125 -2.570312 -5.828125 -4.5625 C -5.828125 -9.070312 -3.9375 -11.328125 -0.15625 -11.328125 C 3.195312 -11.328125 6.210938 -13.03125 8.890625 -16.4375 C 11.566406 -19.851562 13.90625 -25.550781 15.90625 -33.53125 L 20.625 -51.953125 C 25.03125 -68.328125 33.425781 -76.515625 45.8125 -76.515625 C 50.320312 -76.515625 54.175781 -75.226562 57.375 -72.65625 C 60.582031 -70.082031 62.867188 -66.539062 64.234375 -62.03125 C 66.648438 -66.644531 69.820312 -70.210938 73.75 -72.734375 C 77.6875 -75.253906 82.125 -76.515625 87.0625 -76.515625 C 97.34375 -76.515625 104.320312 -71.210938 108 -60.609375 C 110.519531 -65.648438 113.929688 -69.5625 118.234375 -72.34375 C 122.535156 -75.125 127.414062 -76.515625 132.875 -76.515625 C 140.332031 -76.515625 146.050781 -74.148438 150.03125 -69.421875 C 154.019531 -64.703125 156.015625 -58.039062 156.015625 -49.4375 L 156.015625 -27.546875 C 156.015625 -21.460938 156.828125 -17.238281 158.453125 -14.875 C 160.085938 -12.507812 162.476562 -11.328125 165.625 -11.328125 C 167.09375 -11.328125 168.21875 -10.695312 169 -9.4375 C 169.789062 -8.1875 170.1875 -6.507812 170.1875 -4.40625 C 170.1875 -2.726562 169.738281 -1.207031 168.84375 0.15625 C 167.957031 1.519531 166.515625 2.203125 164.515625 2.203125 C 158.117188 2.203125 152.710938 0.0234375 148.296875 -4.328125 C 143.890625 -8.679688 141.6875 -15.84375 141.6875 -25.8125 L 141.6875 -45.96875 C 141.6875 -51.425781 140.691406 -55.625 138.703125 -58.5625 C 136.710938 -61.5 133.878906 -62.96875 130.203125 -62.96875 C 124.640625 -62.96875 120.253906 -59.789062 117.046875 -53.4375 C 113.847656 -47.09375 112.25 -38.304688 112.25 -27.078125 L 112.25 0 C 111.195312 0.3125 110.039062 0.570312 108.78125 0.78125 C 107.53125 1 106.328125 1.109375 105.171875 1.109375 C 102.648438 1.109375 100.234375 0.738281 97.921875 0 L 97.921875 -43.765625 C 97.921875 -49.960938 96.84375 -54.710938 94.6875 -58.015625 C 92.539062 -61.316406 89.367188 -62.96875 85.171875 -62.96875 C 81.285156 -62.96875 77.925781 -61.472656 75.09375 -58.484375 C 72.257812 -55.492188 70.03125 -51.296875 68.40625 -45.890625 C 66.78125 -40.484375 65.96875 -34.210938 65.96875 -27.078125 L 65.96875 0 C 64.914062 0.3125 63.757812 0.570312 62.5 0.78125 C 61.238281 1 60.03125 1.109375 58.875 1.109375 C 56.257812 1.109375 53.898438 0.738281 51.796875 0 L 51.796875 -50.21875 C 51.796875 -58.71875 49.382812 -62.96875 44.5625 -62.96875 C 42.351562 -62.96875 40.460938 -61.972656 38.890625 -59.984375 C 37.316406 -57.992188 35.953125 -54.789062 34.796875 -50.375 L 28.96875 -27.703125 C 26.238281 -17.316406 22.457031 -9.734375 17.625 -4.953125 C 12.800781 -0.179688 6.503906 2.203125 -1.265625 2.203125 Z M -1.265625 2.203125 "/></g></g></g><g fill="#000000" fill-opacity="1"><g transform="translate(1039.884642, 640.704494)"><g><path d="M -0.15625 -11.328125 C 3.414062 -11.328125 6.90625 -13.085938 10.3125 -16.609375 C 13.71875 -20.128906 16.578125 -24.878906 18.890625 -30.859375 C 18.785156 -32.328125 18.734375 -33.796875 18.734375 -35.265625 C 18.734375 -43.242188 20.304688 -50.328125 23.453125 -56.515625 C 26.609375 -62.710938 30.882812 -67.59375 36.28125 -71.15625 C 41.6875 -74.726562 47.851562 -76.515625 54.78125 -76.515625 C 58.457031 -76.515625 62.078125 -75.804688 65.640625 -74.390625 C 69.210938 -72.972656 72.207031 -71.054688 74.625 -68.640625 L 74.625 -75.09375 C 75.570312 -75.40625 76.675781 -75.664062 77.9375 -75.875 C 79.195312 -76.09375 80.507812 -76.203125 81.875 -76.203125 C 84.382812 -76.203125 86.742188 -75.832031 88.953125 -75.09375 L 88.953125 -28.96875 C 88.953125 -23.40625 89.816406 -19.070312 91.546875 -15.96875 C 93.273438 -12.875 96.1875 -11.328125 100.28125 -11.328125 C 102.070312 -11.328125 103.28125 -10.59375 103.90625 -9.125 C 104.539062 -7.65625 104.859375 -6.082031 104.859375 -4.40625 C 104.859375 -2.726562 104.410156 -1.207031 103.515625 0.15625 C 102.617188 1.519531 101.175781 2.203125 99.1875 2.203125 C 88.894531 2.203125 82.019531 -2.414062 78.5625 -11.65625 C 75.519531 -7.351562 71.710938 -3.96875 67.140625 -1.5 C 62.578125 0.96875 57.515625 2.203125 51.953125 2.203125 C 45.867188 2.203125 40.488281 0.863281 35.8125 -1.8125 C 31.144531 -4.488281 27.34375 -8.1875 24.40625 -12.90625 C 17.894531 -2.832031 9.335938 2.203125 -1.265625 2.203125 C -2.628906 2.203125 -3.726562 1.570312 -4.5625 0.3125 C -5.40625 -0.945312 -5.828125 -2.570312 -5.828125 -4.5625 C -5.828125 -9.070312 -3.9375 -11.328125 -0.15625 -11.328125 Z M 33.375 -35.265625 C 33.375 -27.816406 35.078125 -21.960938 38.484375 -17.703125 C 41.898438 -13.453125 46.597656 -11.328125 52.578125 -11.328125 C 59.191406 -11.328125 64.519531 -13.769531 68.5625 -18.65625 C 72.601562 -23.539062 74.625 -29.96875 74.625 -37.9375 L 74.625 -53.53125 C 72.53125 -56.363281 69.851562 -58.644531 66.59375 -60.375 C 63.34375 -62.101562 59.984375 -62.96875 56.515625 -62.96875 C 52.003906 -62.96875 48.015625 -61.757812 44.546875 -59.34375 C 41.085938 -56.9375 38.359375 -53.660156 36.359375 -49.515625 C 34.367188 -45.367188 33.375 -40.617188 33.375 -35.265625 Z M 33.375 -35.265625 "/></g></g></g><g fill="#000000" fill-opacity="1"><g transform="translate(1140.327593, 640.704494)"><g><path d="M -0.15625 -11.328125 C 2.050781 -11.328125 4.410156 -12.007812 6.921875 -13.375 C 9.441406 -14.738281 11.804688 -16.84375 14.015625 -19.6875 C 16.640625 -23.25 18.550781 -27.335938 19.75 -31.953125 C 20.957031 -36.578125 21.722656 -41.25 22.046875 -45.96875 L 22.046875 -74.3125 C 22.984375 -74.625 24.082031 -74.882812 25.34375 -75.09375 C 26.601562 -75.300781 27.914062 -75.40625 29.28125 -75.40625 C 31.695312 -75.40625 34.0625 -75.039062 36.375 -74.3125 L 36.375 -28.96875 C 36.375 -23.40625 37.238281 -19.070312 38.96875 -15.96875 C 40.695312 -12.875 43.609375 -11.328125 47.703125 -11.328125 C 49.484375 -11.328125 50.6875 -10.59375 51.3125 -9.125 C 51.945312 -7.65625 52.265625 -6.082031 52.265625 -4.40625 C 52.265625 -2.726562 51.816406 -1.207031 50.921875 0.15625 C 50.035156 1.519531 48.59375 2.203125 46.59375 2.203125 C 35.6875 2.203125 28.601562 -2.9375 25.34375 -13.21875 C 23.875 -10.8125 22.300781 -8.765625 20.625 -7.078125 C 17.789062 -4.242188 14.507812 -1.988281 10.78125 -0.3125 C 7.0625 1.363281 3.046875 2.203125 -1.265625 2.203125 C -2.734375 2.203125 -3.859375 1.492188 -4.640625 0.078125 C -5.429688 -1.335938 -5.828125 -2.882812 -5.828125 -4.5625 C -5.828125 -6.34375 -5.378906 -7.914062 -4.484375 -9.28125 C -3.597656 -10.644531 -2.15625 -11.328125 -0.15625 -11.328125 Z M 29.59375 -100.921875 C 26.65625 -100.921875 24.132812 -101.96875 22.03125 -104.0625 C 19.9375 -106.164062 18.890625 -108.6875 18.890625 -111.625 C 18.890625 -114.664062 19.910156 -117.207031 21.953125 -119.25 C 24.003906 -121.300781 26.550781 -122.328125 29.59375 -122.328125 C 32.632812 -122.328125 35.175781 -121.300781 37.21875 -119.25 C 39.269531 -117.207031 40.296875 -114.664062 40.296875 -111.625 C 40.296875 -108.6875 39.269531 -106.164062 37.21875 -104.0625 C 35.175781 -101.96875 32.632812 -100.921875 29.59375 -100.921875 Z M 29.59375 -100.921875 "/></g></g></g><g fill="#000000" fill-opacity="1"><g transform="translate(1188.187584, 640.704494)"><g><path d="M -1.265625 2.203125 C -2.628906 2.203125 -3.726562 1.570312 -4.5625 0.3125 C -5.40625 -0.945312 -5.828125 -2.570312 -5.828125 -4.5625 C -5.828125 -6.664062 -5.328125 -8.316406 -4.328125 -9.515625 C -3.328125 -10.722656 -1.988281 -11.328125 -0.3125 -11.328125 C 3.25 -11.328125 7.128906 -12.691406 11.328125 -15.421875 C 15.535156 -18.148438 19.523438 -21.878906 23.296875 -26.609375 C 22.671875 -30.390625 22.195312 -35.003906 21.875 -40.453125 C 21.5625 -45.910156 21.351562 -52.734375 21.25 -60.921875 C 21.144531 -69.109375 21.09375 -79.1875 21.09375 -91.15625 L 21.09375 -110.84375 C 21.09375 -115.769531 21.273438 -120.28125 21.640625 -124.375 C 22.015625 -128.46875 22.671875 -132.140625 23.609375 -135.390625 C 25.609375 -142.210938 28.578125 -147.222656 32.515625 -150.421875 C 36.453125 -153.628906 41.144531 -155.234375 46.59375 -155.234375 C 54.46875 -155.234375 60.632812 -151.640625 65.09375 -144.453125 C 69.5625 -137.265625 71.796875 -127.265625 71.796875 -114.453125 C 71.796875 -99.335938 68.851562 -83.828125 62.96875 -67.921875 C 57.09375 -52.023438 48.695312 -36.835938 37.78125 -22.359375 C 37.882812 -22.148438 37.988281 -21.882812 38.09375 -21.5625 C 39.457031 -18.207031 41.375 -15.632812 43.84375 -13.84375 C 46.3125 -12.0625 49.488281 -11.171875 53.375 -11.171875 C 54.84375 -11.171875 56.019531 -10.566406 56.90625 -9.359375 C 57.800781 -8.160156 58.25 -6.507812 58.25 -4.40625 C 58.25 0 56.304688 2.203125 52.421875 2.203125 C 46.128906 2.203125 41.039062 0.890625 37.15625 -1.734375 C 33.269531 -4.359375 30.28125 -7.664062 28.1875 -11.65625 C 19.15625 -2.414062 9.335938 2.203125 -1.265625 2.203125 Z M 34.484375 -90.21875 C 34.484375 -77.726562 34.507812 -67.597656 34.5625 -59.828125 C 34.613281 -52.054688 34.742188 -45.757812 34.953125 -40.9375 C 50.585938 -66.863281 58.40625 -91.421875 58.40625 -114.609375 C 58.40625 -123.535156 57.378906 -130.359375 55.328125 -135.078125 C 53.285156 -139.804688 50.320312 -142.171875 46.4375 -142.171875 C 42.5625 -142.171875 39.597656 -139.703125 37.546875 -134.765625 C 35.503906 -129.828125 34.484375 -121.273438 34.484375 -109.109375 Z M 34.484375 -90.21875 "/></g></g></g></svg>