<svg width="92" height="94" viewBox="0 0 92 94" fill="none" xmlns="http://www.w3.org/2000/svg">
<path d="M39.8827 0C17.8336 0 0 17.8336 0 39.8827C0 61.9318 17.8336 79.7654 39.8827 79.7654C47.7548 79.7654 55.0403 77.456 61.217 73.5337L90.0293 102.346L100 92.3754L71.5542 64.0029C76.6679 57.2947 79.7654 48.9828 79.7654 39.8827C79.7654 17.8336 61.9318 0 39.8827 0ZM39.8827 9.38416C56.7724 9.38416 70.3812 22.993 70.3812 39.8827C70.3812 56.7724 56.7724 70.3812 39.8827 70.3812C22.993 70.3812 9.38416 56.7724 9.38416 39.8827C9.38416 22.993 22.993 9.38416 39.8827 9.38416Z" fill="white"/>
</svg>
