<svg xmlns="http://www.w3.org/2000/svg" xmlns:xlink="http://www.w3.org/1999/xlink" width="312" zoomAndPan="magnify" viewBox="0 0 234 323.999988" height="432" preserveAspectRatio="xMidYMid meet" version="1.0"><defs><clipPath id="a6d6c2eb57"><path d="M 0.5625 92 L 60 92 L 60 106 L 0.5625 106 Z M 0.5625 92 " clip-rule="nonzero"/></clipPath></defs><path fill="#ffffff" d="M 99.699219 58.742188 C 103.15625 58.742188 105.953125 55.941406 105.953125 52.488281 L 105.953125 6.222656 C 105.953125 2.769531 103.15625 -0.03125 99.699219 -0.03125 C 96.242188 -0.03125 93.445312 2.769531 93.445312 6.222656 L 93.445312 52.488281 C 93.445312 55.941406 96.242188 58.742188 99.699219 58.742188 " fill-opacity="1" fill-rule="nonzero"/><path fill="#ffffff" d="M 132.472656 72.453125 C 134.070312 72.453125 135.675781 71.84375 136.898438 70.621094 L 169.609375 37.914062 C 172.050781 35.46875 172.050781 31.511719 169.609375 29.066406 C 167.175781 26.636719 163.21875 26.621094 160.761719 29.066406 L 128.050781 61.777344 C 125.605469 64.21875 125.605469 68.179688 128.050781 70.621094 C 129.273438 71.84375 130.871094 72.453125 132.472656 72.453125 " fill-opacity="1" fill-rule="nonzero"/><path fill="#ffffff" d="M 70.953125 127.164062 C 68.515625 124.730469 64.554688 124.742188 62.105469 127.175781 L 29.46875 159.898438 C 27.03125 162.347656 27.035156 166.304688 29.480469 168.742188 C 30.703125 169.960938 32.300781 170.574219 33.898438 170.574219 C 35.5 170.574219 37.105469 169.953125 38.328125 168.734375 L 70.960938 136.011719 C 73.402344 133.5625 73.394531 129.601562 70.953125 127.164062 " fill-opacity="1" fill-rule="nonzero"/><g clip-path="url(#a6d6c2eb57)"><path fill="#ffffff" d="M 59.335938 98.675781 C 59.332031 95.222656 56.457031 92.15625 53.070312 92.433594 L 6.855469 92.492188 C 3.402344 92.496094 0.605469 95.300781 0.609375 98.757812 C 0.613281 102.207031 3.414062 105.003906 6.867188 105.003906 C 6.871094 105.003906 6.871094 105.003906 6.875 105.003906 L 53.09375 104.941406 C 56.542969 104.9375 59.34375 102.132812 59.335938 98.675781 " fill-opacity="1" fill-rule="nonzero"/></g><path fill="#ffffff" d="M 62.417969 70.335938 C 63.640625 71.550781 65.234375 72.164062 66.832031 72.164062 C 68.4375 72.164062 70.042969 71.550781 71.261719 70.324219 C 73.699219 67.878906 73.695312 63.917969 71.253906 61.480469 L 38.53125 28.839844 C 36.085938 26.410156 32.128906 26.410156 29.683594 28.847656 C 27.246094 31.296875 27.25 35.257812 29.695312 37.695312 L 62.417969 70.335938 " fill-opacity="1" fill-rule="nonzero"/><path fill="#ffffff" d="M 225.179688 289.289062 C 226.535156 278.945312 233.378906 224.238281 229.96875 200.347656 C 228.410156 189.398438 224.351562 181.507812 217.898438 176.890625 C 212.527344 173.054688 207.089844 172.648438 204.152344 172.78125 C 202.59375 167.957031 200.585938 163.335938 197.992188 159.585938 C 190.539062 148.808594 180.21875 147.332031 172.964844 148.5 C 172.5625 147.824219 172.253906 147.023438 171.832031 146.371094 C 165.089844 135.835938 153.828125 134.101562 145.789062 134.917969 C 136.1875 113.382812 122.554688 86.964844 112.085938 83.347656 C 109.242188 82.359375 106.363281 82.621094 103.929688 84.023438 C 86.066406 94.375 93.621094 119.722656 104.507812 149.324219 C 114.667969 176.964844 113 201.726562 112.285156 208.667969 C 111.609375 208.5625 110.632812 208.328125 109.285156 207.8125 C 106.113281 206.613281 103.441406 203.085938 100.050781 198.628906 C 96.320312 193.707031 91.667969 187.578125 84.511719 182.714844 C 77.304688 177.808594 68.703125 177.152344 59.632812 180.816406 C 55.730469 182.394531 52.714844 185.617188 51.363281 189.648438 C 49.976562 193.785156 50.464844 198.308594 52.710938 202.058594 L 81.226562 249.710938 C 86.917969 259.222656 95.109375 266.980469 104.300781 271.792969 L 134.503906 292.453125 L 150.277344 320.75 C 151.417969 322.808594 153.550781 323.964844 155.746094 323.964844 C 156.777344 323.964844 157.820312 323.710938 158.78125 323.167969 C 161.800781 321.488281 162.886719 317.683594 161.199219 314.664062 L 144.714844 285.078125 C 144.246094 284.234375 143.585938 283.503906 142.785156 282.960938 L 110.753906 261.101562 C 102.976562 256.992188 96.476562 250.832031 91.964844 243.289062 L 63.441406 195.632812 C 62.925781 194.773438 63.117188 193.9375 63.226562 193.625 C 63.359375 193.222656 63.65625 192.683594 64.324219 192.410156 C 69.472656 190.320312 73.761719 190.539062 77.476562 193.054688 C 82.945312 196.78125 86.578125 201.5625 90.089844 206.1875 C 94.316406 211.765625 98.320312 217.03125 104.84375 219.507812 C 110.460938 221.640625 115.175781 221.816406 118.871094 220.015625 C 122.574219 218.203125 123.753906 215.152344 124.210938 213.488281 C 124.4375 212.191406 129.5625 181.214844 116.246094 145.007812 C 103.664062 110.785156 103.796875 100.007812 108.9375 95.722656 C 115.839844 100.804688 131.320312 131.417969 142.3125 158.792969 L 149.625 192.808594 C 150.347656 196.1875 153.671875 198.347656 157.050781 197.609375 C 160.433594 196.886719 162.578125 193.554688 161.851562 190.179688 L 154.425781 155.648438 C 154.355469 155.300781 154.253906 154.964844 154.121094 154.640625 C 153.265625 152.496094 152.242188 149.992188 151.125 147.304688 C 154.644531 147.621094 158.652344 148.980469 161.296875 153.113281 C 168.472656 164.328125 173.09375 180.707031 173.65625 196.910156 C 173.773438 200.285156 176.546875 202.945312 179.898438 202.945312 C 179.976562 202.945312 180.050781 202.945312 180.125 202.941406 C 183.578125 202.824219 186.277344 199.929688 186.15625 196.472656 C 185.71875 183.882812 183.046875 171.585938 178.839844 160.769531 C 181.644531 161.167969 184.894531 162.640625 187.707031 166.703125 C 194.441406 176.433594 196.636719 197.003906 196.910156 204.109375 C 197.042969 207.476562 199.8125 210.125 203.15625 210.125 C 203.238281 210.125 203.320312 210.117188 203.398438 210.117188 C 206.851562 209.984375 209.542969 207.082031 209.414062 203.636719 C 209.390625 203.015625 209.046875 195.109375 207.304688 185.597656 C 208.320312 185.84375 209.445312 186.234375 210.617188 187.074219 C 214.136719 189.582031 216.542969 194.785156 217.585938 202.105469 C 221.03125 226.277344 212.652344 288.601562 212.566406 289.226562 C 212.425781 290.28125 212.558594 291.351562 212.945312 292.347656 L 218.554688 306.664062 C 219.519531 309.132812 221.878906 310.640625 224.375 310.640625 C 225.136719 310.640625 225.90625 310.5 226.65625 310.207031 C 229.875 308.949219 231.460938 305.320312 230.199219 302.105469 L 225.179688 289.289062 " fill-opacity="1" fill-rule="nonzero"/></svg>