<svg xmlns="http://www.w3.org/2000/svg" xmlns:xlink="http://www.w3.org/1999/xlink" viewBox="0,0,256,256" width="100px" height="100px"><defs><linearGradient x1="8.977" y1="-3.107" x2="40.764" y2="53.191" gradientUnits="userSpaceOnUse" id="color-1"><stop offset="0" stop-color="#41474a"></stop><stop offset="1" stop-color="#323538"></stop></linearGradient><linearGradient x1="8.977" y1="-3.107" x2="40.764" y2="53.191" gradientUnits="userSpaceOnUse" id="color-2"><stop offset="0" stop-color="#eceff1"></stop><stop offset="1" stop-color="#cfd8dc"></stop></linearGradient></defs><g transform="translate(-17.92,-17.92) scale(1.14,1.14)"><g fill="none" fill-rule="nonzero" stroke="none" stroke-width="1" stroke-linecap="butt" stroke-linejoin="miter" stroke-miterlimit="10" stroke-dasharray="" stroke-dashoffset="0" font-family="none" font-weight="none" font-size="none" text-anchor="none" style="mix-blend-mode: normal"><g transform="scale(5.33333,5.33333)"><path d="M43,40h-38c-1.105,0 -2,-0.895 -2,-2v-29c0,-1.105 0.895,-2 2,-2h38c1.105,0 2,0.895 2,2v29c0,1.105 -0.895,2 -2,2z" fill="url(#color-1)"></path><path d="M42,10v27h-36v-27h36M43,7h-38c-1.105,0 -2,0.895 -2,2v29c0,1.105 0.895,2 2,2h38c1.105,0 2,-0.895 2,-2v-29c0,-1.105 -0.895,-2 -2,-2z" fill="url(#color-2)"></path><path d="M16.52,18.527c-0.384,-0.414 -0.955,-0.772 -1.737,-1.089v-1.343c0.403,0.097 0.777,0.251 1.115,0.458l0.761,0.467v-0.893v-1.624v-0.292l-0.254,-0.143c-0.398,-0.225 -0.932,-0.369 -1.622,-0.438v-0.63v-0.5h-0.5h-0.87h-0.5v0.5v0.69c-0.641,0.136 -1.18,0.42 -1.606,0.848c-0.536,0.538 -0.807,1.198 -0.807,1.962c0,0.703 0.21,1.311 0.625,1.809c0.357,0.427 0.944,0.806 1.788,1.154v1.265c-0.174,-0.041 -0.36,-0.096 -0.555,-0.165c-0.401,-0.141 -0.697,-0.288 -0.881,-0.439l-0.817,-0.668v1.055v1.666v0.302l0.267,0.141c0.618,0.325 1.284,0.521 1.985,0.586v0.794v0.5h0.5h0.87h0.5v-0.5v-0.878c0.684,-0.139 1.239,-0.411 1.653,-0.811c0.521,-0.502 0.785,-1.164 0.785,-1.968c0,-0.705 -0.235,-1.316 -0.7,-1.816z" fill="#000000" opacity="0.05"></path><path d="M16.886,18.187c-0.381,-0.411 -0.908,-0.766 -1.604,-1.079v-0.315c0.123,0.056 0.241,0.118 0.354,0.187l0.761,0.467l0.762,0.467v-0.893v-0.893v-1.624v-0.292v-0.292l-0.254,-0.143l-0.254,-0.143c-0.366,-0.207 -0.816,-0.352 -1.368,-0.442v-0.192v-0.5v-0.5h-0.5h-0.5h-0.87h-0.5h-0.5v0.5v0.5v0.305c-0.567,0.18 -1.057,0.475 -1.46,0.88c-0.633,0.636 -0.953,1.415 -0.953,2.315c0,0.823 0.249,1.539 0.74,2.129c0.364,0.435 0.913,0.817 1.672,1.162v0.26c-0.375,-0.141 -0.548,-0.255 -0.619,-0.314l-0.817,-0.668l-0.817,-0.668v1.055v1.055v1.666v0.302v0.302l0.267,0.141l0.267,0.141c0.541,0.284 1.116,0.479 1.718,0.582v0.355v0.5v0.5h0.5h0.5h0.87h0.5h0.5v-0.5v-0.5v-0.487c0.6,-0.176 1.103,-0.459 1.5,-0.843c0.622,-0.6 0.937,-1.383 0.937,-2.327c0.002,-0.835 -0.278,-1.561 -0.832,-2.156z" fill="#000000" opacity="0.05"></path><path d="M41.5,10.5v26h-35v-26h35M42,10h-36v27h36v-27z" fill="#000000" opacity="0.05"></path><rect x="6" y="10" width="36" height="27" fill="none"></rect><path d="M41,11v25h-34v-25h34M42,10h-36v27h36v-27z" fill="#000000" opacity="0.05"></path><path d="M25,22.5h-6h-0.5v0.5v1v0.5h0.5h6h0.5v-0.5v-1v-0.5z" fill="#000000" opacity="0.05"></path><path d="M25.5,22h-0.5h-6h-0.5h-0.5v0.5v0.5v1v0.5v0.5h0.5h0.5h6h0.5h0.5v-0.5v-0.5v-1v-0.5v-0.5z" fill="#000000" opacity="0.05"></path><g fill="#ffffff"><path d="M14.283,22.695v1.305h-0.87v-1.269c-0.807,-0.004 -1.557,-0.188 -2.252,-0.553v-1.666c0.23,0.188 0.574,0.363 1.031,0.523c0.457,0.161 0.864,0.253 1.221,0.277v-2.189c-0.93,-0.349 -1.564,-0.727 -1.904,-1.133c-0.339,-0.408 -0.509,-0.904 -0.509,-1.49c0,-0.63 0.22,-1.166 0.661,-1.609c0.441,-0.443 1.025,-0.7 1.752,-0.773v-1.118h0.87v1.095c0.838,0.04 1.464,0.176 1.877,0.409v1.624c-0.556,-0.341 -1.182,-0.549 -1.877,-0.625v2.279c0.87,0.317 1.493,0.679 1.871,1.086c0.378,0.407 0.567,0.899 0.567,1.476c0,0.666 -0.211,1.202 -0.633,1.609c-0.421,0.406 -1.022,0.654 -1.805,0.742zM13.413,17.432v-1.907c-0.552,0.1 -0.829,0.391 -0.829,0.872c0,0.414 0.277,0.759 0.829,1.035zM14.283,19.465v1.822c0.568,-0.088 0.852,-0.375 0.852,-0.86c-0.001,-0.392 -0.284,-0.713 -0.852,-0.962z"></path></g><rect x="19" y="23" width="6" height="1" fill="#ffffff"></rect></g></g></g></svg>